<svg width="44" height="44" viewBox="0 0 44 44" fill="none" xmlns="http://www.w3.org/2000/svg">
<path d="M0 22C0 9.84974 9.84974 0 22 0C34.1503 0 44 9.84974 44 22C44 34.1503 34.1503 44 22 44C9.84974 44 0 34.1503 0 22Z" fill="#EAF0F2"/>
<path d="M30.25 14.5H13.75C13.3358 14.5 13 14.8358 13 15.25V28.75C13 29.1642 13.3358 29.5 13.75 29.5H30.25C30.6642 29.5 31 29.1642 31 28.75V15.25C31 14.8358 30.6642 14.5 30.25 14.5Z" stroke="#266273" stroke-width="1.4" stroke-linecap="round" stroke-linejoin="round"/>
<path d="M24.625 20.5C25.2463 20.5 25.75 19.9963 25.75 19.375C25.75 18.7537 25.2463 18.25 24.625 18.25C24.0037 18.25 23.5 18.7537 23.5 19.375C23.5 19.9963 24.0037 20.5 24.625 20.5Z" fill="#266273"/>
<path d="M23.8105 25.3751L26.219 22.9695C26.3596 22.829 26.5503 22.75 26.7491 22.75C26.948 22.75 27.1387 22.829 27.2793 22.9695L31.0002 26.6932" stroke="#266273" stroke-width="1.4" stroke-linecap="round" stroke-linejoin="round"/>
<path d="M13 25.8153L18.0944 20.72C18.164 20.6502 18.2467 20.5949 18.3378 20.5572C18.4288 20.5194 18.5264 20.5 18.625 20.5C18.7236 20.5 18.8212 20.5194 18.9122 20.5572C19.0033 20.5949 19.086 20.6502 19.1556 20.72L27.9353 29.5006" stroke="#266273" stroke-width="1.4" stroke-linecap="round" stroke-linejoin="round"/>
</svg>
