<svg width="20" height="20" viewBox="0 0 20 20" fill="none" xmlns="http://www.w3.org/2000/svg">
<path d="M18.3342 10.0989C18.3342 5.44263 14.5595 1.66797 9.90323 1.66797C6.12404 1.66797 2.92562 4.15451 1.85475 7.5808C1.78616 7.80028 1.75186 7.91003 1.75509 8.04725C1.75772 8.15884 1.79164 8.29669 1.84108 8.39675C1.90189 8.51981 1.99577 8.6137 2.18354 8.80145L11.201 17.8185C11.3888 18.0063 11.4827 18.1002 11.6058 18.161C11.7058 18.2104 11.8437 18.2443 11.9553 18.247C12.0925 18.2502 12.2022 18.2159 12.4217 18.1473C15.8478 17.0763 18.3342 13.878 18.3342 10.0989Z" stroke="#709DA9" stroke-width="1.4" stroke-linecap="round" stroke-linejoin="round"/>
<path d="M2.87266 8.11305C3.07308 8.09879 3.27543 8.09155 3.47948 8.09155C8.13576 8.09155 11.9104 11.8662 11.9104 16.5225C11.9104 16.7265 11.9032 16.9289 11.8889 17.1293C11.864 17.4795 11.8516 17.6546 11.7495 17.7627C11.6666 17.8505 11.5251 17.9033 11.405 17.8913C11.257 17.8764 11.1225 17.7419 10.8533 17.4728L2.52919 9.14862C2.26008 8.87951 2.12553 8.74496 2.11071 8.597C2.09867 8.47684 2.15146 8.33537 2.23929 8.25247C2.34742 8.15041 2.5225 8.13795 2.87266 8.11305Z" stroke="#709DA9" stroke-width="1.4" stroke-linecap="round" stroke-linejoin="round"/>
</svg>
