<svg width="32" height="32" viewBox="0 0 32 32" fill="none" xmlns="http://www.w3.org/2000/svg">
<path d="M15.9999 30.6654C24.1001 30.6654 30.6666 24.0989 30.6666 15.9987C30.6666 7.89852 24.1001 1.33203 15.9999 1.33203C7.89974 1.33203 1.33325 7.89852 1.33325 15.9987C1.33325 24.0989 7.89974 30.6654 15.9999 30.6654Z" fill="url(#paint0_linear_17237_32774)"/>
<path d="M23.6666 17.668C23.6666 17.7796 23.6649 17.8913 23.6599 18.0013C23.6399 18.443 23.5833 18.8746 23.4933 19.293C23.1983 20.663 22.5366 21.8963 21.6149 22.8846C21.0766 23.4646 20.4483 23.963 19.7533 24.353C18.6449 24.978 17.3633 25.3346 15.9999 25.3346C14.5649 25.3346 13.2233 24.9413 12.0749 24.253C11.4483 23.8796 10.8783 23.4163 10.3833 22.8846C9.46325 21.8963 8.80159 20.663 8.50659 19.293C8.41659 18.8746 8.35992 18.443 8.33992 18.0013C8.33492 17.8913 8.33325 17.7796 8.33325 17.668H23.6666Z" fill="black"/>
<path d="M18.8967 23.6663V25.8246C18.8967 27.4896 17.6567 28.923 16.0434 29.0013C14.3217 29.0846 12.9 27.6696 12.9 25.9113V23.6663C12.9 23.1146 13.3334 22.668 13.8667 22.668H17.93C18.4634 22.668 18.8967 23.1146 18.8967 23.6663Z" fill="#FF5A5A"/>
<path d="M23.1567 13.1606C22.9734 13.1606 22.8234 13.0106 22.8234 12.8272C22.8234 11.6372 21.8567 10.6706 20.6667 10.6706C19.4767 10.6706 18.5101 11.6389 18.5101 12.8272C18.5101 13.0106 18.3601 13.1606 18.1767 13.1606C17.9934 13.1606 17.8434 13.0106 17.8434 12.8272C17.8434 11.2706 19.1101 10.0039 20.6667 10.0039C22.2234 10.0039 23.4901 11.2706 23.4901 12.8272C23.4901 13.0106 23.3401 13.1606 23.1567 13.1606Z" fill="black"/>
<path d="M13.8233 13.1606C13.64 13.1606 13.49 13.0106 13.49 12.8272C13.49 11.6372 12.5233 10.6706 11.3333 10.6706C10.1433 10.6706 9.17668 11.6389 9.17668 12.8272C9.17668 13.0106 9.02668 13.1606 8.84334 13.1606C8.66001 13.1606 8.51001 13.0106 8.51001 12.8272C8.51001 11.2706 9.77668 10.0039 11.3333 10.0039C12.89 10.0039 14.1567 11.2706 14.1567 12.8272C14.1567 13.0106 14.0067 13.1606 13.8233 13.1606Z" fill="black"/>
<defs>
<linearGradient id="paint0_linear_17237_32774" x1="5.62909" y1="5.62786" x2="26.3708" y2="26.3695" gradientUnits="userSpaceOnUse">
<stop stop-color="#FFCF57"/>
<stop offset="1" stop-color="#F57F17"/>
</linearGradient>
</defs>
</svg>
