<svg width="32" height="32" viewBox="0 0 32 32" fill="none" xmlns="http://www.w3.org/2000/svg">
<path d="M15.9999 30.6654C24.1001 30.6654 30.6666 24.0989 30.6666 15.9987C30.6666 7.89852 24.1001 1.33203 15.9999 1.33203C7.89974 1.33203 1.33325 7.89852 1.33325 15.9987C1.33325 24.0989 7.89974 30.6654 15.9999 30.6654Z" fill="url(#paint0_linear_17237_32786)"/>
<path d="M13.3333 15.9752C13.3333 15.9535 13.3333 15.9318 13.3349 15.9102C13.3349 15.9402 13.3333 15.9702 13.3333 16.0002V15.9752Z" fill="#212121"/>
<path d="M18.6667 15.9752V16.0002C18.6667 15.9702 18.665 15.9402 18.665 15.9102C18.6667 15.9318 18.6667 15.9535 18.6667 15.9752Z" fill="#212121"/>
<path d="M23.6666 17.668C23.6666 17.7796 23.6649 17.8913 23.6599 18.0013C23.6399 18.443 23.5833 18.8746 23.4933 19.293C23.1983 20.663 22.5366 21.8963 21.6149 22.8846C21.0766 23.4646 20.4483 23.963 19.7533 24.353C18.6449 24.978 17.3633 25.3346 15.9999 25.3346C14.5649 25.3346 13.2233 24.9413 12.0749 24.253C11.4483 23.8796 10.8783 23.4163 10.3833 22.8846C9.46325 21.8963 8.80159 20.663 8.50659 19.293C8.41659 18.8746 8.35992 18.443 8.33992 18.0013C8.33492 17.8913 8.33325 17.7796 8.33325 17.668H23.6666Z" fill="black"/>
<path d="M19.7534 24.3517C18.6451 24.9767 17.3634 25.3333 16.0001 25.3333C14.5651 25.3333 13.2234 24.94 12.0751 24.2517C12.6084 22.6517 14.1184 21.5 15.8967 21.5C17.7134 21.5 19.2501 22.7 19.7534 24.3517Z" fill="#FF5A5A"/>
<path d="M8.32001 9.01729C8.30501 10.654 6.97168 11.9756 5.33335 11.9756C3.69168 11.9756 2.36168 10.654 2.34668 9.01729C2.34668 8.98396 2.34835 8.95062 2.34835 8.91729V8.90396C2.35001 8.86896 2.35001 8.83063 2.35335 8.79396C2.44335 6.63396 3.55835 4.73729 5.22501 3.58063C5.28835 3.53563 5.37501 3.53563 5.44001 3.58063C7.10501 4.73896 8.22335 6.63396 8.31168 8.79396C8.31501 8.83063 8.31501 8.86896 8.31668 8.90396V8.91729C8.31835 8.94896 8.32001 8.98396 8.32001 9.01729C8.30501 10.654 6.97168 11.9756 5.33335 11.9756C3.69168 11.9756 2.36168 10.654 2.34668 9.01729" fill="url(#paint1_linear_17237_32786)"/>
<path d="M13.6466 13.7543C13.4633 13.7543 13.3133 13.6043 13.3133 13.421C13.3133 12.231 12.3466 11.2643 11.1566 11.2643C9.96659 11.2643 8.99992 12.231 8.99992 13.421C8.99992 13.6043 8.84992 13.7543 8.66659 13.7543C8.48325 13.7543 8.33325 13.6043 8.33325 13.421C8.33325 11.8643 9.59992 10.5977 11.1566 10.5977C12.7133 10.5977 13.9799 11.8643 13.9799 13.421C13.9799 13.6043 13.8299 13.7543 13.6466 13.7543Z" fill="black"/>
<path d="M23.3332 13.7543C23.1499 13.7543 22.9999 13.6043 22.9999 13.421C22.9999 12.231 22.0332 11.2643 20.8432 11.2643C19.6549 11.2643 18.6866 12.231 18.6866 13.421C18.6866 13.6043 18.5366 13.7543 18.3532 13.7543C18.1699 13.7543 18.0199 13.6043 18.0199 13.421C18.0199 11.8643 19.2866 10.5977 20.8432 10.5977C22.3999 10.5977 23.6666 11.8643 23.6666 13.421C23.6666 13.6043 23.5166 13.7543 23.3332 13.7543Z" fill="black"/>
<defs>
<linearGradient id="paint0_linear_17237_32786" x1="5.62909" y1="5.62786" x2="26.3708" y2="26.3695" gradientUnits="userSpaceOnUse">
<stop stop-color="#FFCF57"/>
<stop offset="1" stop-color="#F57F17"/>
</linearGradient>
<linearGradient id="paint1_linear_17237_32786" x1="3.15851" y1="4.77279" x2="7.02135" y2="11.4633" gradientUnits="userSpaceOnUse">
<stop stop-color="#B3E5FC"/>
<stop offset="1" stop-color="#40C4FF"/>
</linearGradient>
</defs>
</svg>
