<svg width="32" height="32" viewBox="0 0 32 32" fill="none" xmlns="http://www.w3.org/2000/svg">
<path d="M15.9999 30.6654C24.1001 30.6654 30.6666 24.0989 30.6666 15.9987C30.6666 7.89852 24.1001 1.33203 15.9999 1.33203C7.89974 1.33203 1.33325 7.89852 1.33325 15.9987C1.33325 24.0989 7.89974 30.6654 15.9999 30.6654Z" fill="url(#paint0_linear_17237_32799)"/>
<path d="M24.76 19.829C24.6817 19.9957 24.4834 20.0673 24.3167 19.989C21.78 18.7973 19.0617 18.194 16.2367 18.194C13.23 18.194 10.3567 18.874 7.69336 20.214C7.64502 20.2373 7.59336 20.249 7.54336 20.249C7.42169 20.249 7.30336 20.1823 7.24502 20.0657C7.16336 19.9007 7.22836 19.7007 7.39336 19.6173C10.15 18.2307 13.125 17.5273 16.2367 17.5273C19.16 17.5273 21.975 18.1523 24.6 19.3857C24.7667 19.464 24.8384 19.6623 24.76 19.829Z" fill="black"/>
<path d="M14.9349 9.68685C14.9349 9.87018 14.7849 10.0202 14.6016 10.0202H13.3266C13.2483 11.1268 12.3233 12.0002 11.1966 12.0002C10.0699 12.0002 9.14659 11.1285 9.06826 10.0202H7.50826C7.32493 10.0202 7.17493 9.87018 7.17493 9.68685C7.17493 9.50352 7.32493 9.35352 7.50826 9.35352H14.6016C14.7849 9.35352 14.9349 9.50352 14.9349 9.68685Z" fill="black"/>
<path d="M24.8267 9.68685C24.8267 9.87018 24.6767 10.0202 24.4934 10.0202H23.075C22.9967 11.1268 22.075 12.0002 20.9467 12.0002C19.82 12.0002 18.8967 11.1285 18.8184 10.0202H17.4017C17.2184 10.0202 17.0684 9.87018 17.0684 9.68685C17.0684 9.50352 17.2184 9.35352 17.4017 9.35352H24.4934C24.6767 9.35352 24.8267 9.50352 24.8267 9.68685Z" fill="black"/>
<defs>
<linearGradient id="paint0_linear_17237_32799" x1="5.62909" y1="5.62786" x2="26.3708" y2="26.3695" gradientUnits="userSpaceOnUse">
<stop stop-color="#FFCF57"/>
<stop offset="1" stop-color="#F57F17"/>
</linearGradient>
</defs>
</svg>
