<svg width="32" height="32" viewBox="0 0 32 32" fill="none" xmlns="http://www.w3.org/2000/svg">
<path d="M15.9999 30.6654C24.1001 30.6654 30.6666 24.0989 30.6666 15.9987C30.6666 7.89852 24.1001 1.33203 15.9999 1.33203C7.89974 1.33203 1.33325 7.89852 1.33325 15.9987C1.33325 24.0989 7.89974 30.6654 15.9999 30.6654Z" fill="url(#paint0_linear_17237_32823)"/>
<path d="M12.0749 11.5846H8.07491C7.89158 11.5846 7.74158 11.4346 7.74158 11.2513C7.74158 11.068 7.89158 10.918 8.07491 10.918H12.0749C12.2582 10.918 12.4082 11.068 12.4082 11.2513C12.4082 11.4346 12.2582 11.5846 12.0749 11.5846Z" fill="black"/>
<path d="M24.0466 11.5846H20.0466C19.8633 11.5846 19.7133 11.4346 19.7133 11.2513C19.7133 11.068 19.8633 10.918 20.0466 10.918H24.0466C24.2299 10.918 24.3799 11.068 24.3799 11.2513C24.3799 11.4346 24.2299 11.5846 24.0466 11.5846Z" fill="black"/>
<path d="M24.0001 19.5905H8.00008C7.81675 19.5905 7.66675 19.4405 7.66675 19.2572C7.66675 19.0738 7.81675 18.9238 8.00008 18.9238H24.0001C24.1834 18.9238 24.3334 19.0738 24.3334 19.2572C24.3334 19.4405 24.1834 19.5905 24.0001 19.5905Z" fill="black"/>
<defs>
<linearGradient id="paint0_linear_17237_32823" x1="5.62909" y1="5.62786" x2="26.3708" y2="26.3695" gradientUnits="userSpaceOnUse">
<stop stop-color="#FFCF57"/>
<stop offset="1" stop-color="#F57F17"/>
</linearGradient>
</defs>
</svg>
