<svg width="32" height="32" viewBox="0 0 32 32" fill="none" xmlns="http://www.w3.org/2000/svg">
<path d="M15.9999 30.6654C24.1001 30.6654 30.6666 24.0989 30.6666 15.9987C30.6666 7.89852 24.1001 1.33203 15.9999 1.33203C7.89974 1.33203 1.33325 7.89852 1.33325 15.9987C1.33325 24.0989 7.89974 30.6654 15.9999 30.6654Z" fill="url(#paint0_linear_17237_32833)"/>
<path d="M23.6666 17.668C23.6666 17.7796 23.6649 17.8913 23.6599 18.0013C23.6399 18.443 23.5833 18.8746 23.4933 19.293C23.1983 20.663 22.5366 21.8963 21.6149 22.8846C21.0766 23.4646 20.4483 23.963 19.7533 24.353C18.6449 24.978 17.3633 25.3346 15.9999 25.3346C14.5649 25.3346 13.2233 24.9413 12.0749 24.253C11.4483 23.8796 10.8783 23.4163 10.3833 22.8846C9.46325 21.8963 8.80159 20.663 8.50659 19.293C8.41659 18.8746 8.35992 18.443 8.33992 18.0013C8.33492 17.8913 8.33325 17.7796 8.33325 17.668H23.6666Z" fill="black"/>
<path d="M19.7534 24.3517C18.6451 24.9767 17.3634 25.3333 16.0001 25.3333C14.5651 25.3333 13.2234 24.94 12.0751 24.2517C12.6084 22.6517 14.1184 21.5 15.8967 21.5C17.7134 21.5 19.2501 22.7 19.7534 24.3517Z" fill="#FF5A5A"/>
<path d="M9.99996 9.11523L10.7483 11.4186H13.17L11.2116 12.8419L11.96 15.1452L9.99996 13.7219L8.03996 15.1452L8.78829 12.8419L6.82996 11.4186H9.25162L9.99996 9.11523Z" fill="black"/>
<path d="M21.4968 9.11523L22.2451 11.4186H24.6668L22.7068 12.8419L23.4551 15.1452L21.4968 13.7219L19.5368 15.1452L20.2851 12.8419L18.3268 11.4186H20.7484L21.4968 9.11523Z" fill="black"/>
<defs>
<linearGradient id="paint0_linear_17237_32833" x1="5.62909" y1="5.62786" x2="26.3708" y2="26.3695" gradientUnits="userSpaceOnUse">
<stop stop-color="#FFCF57"/>
<stop offset="1" stop-color="#F57F17"/>
</linearGradient>
</defs>
</svg>
