<svg width="50" height="50" viewBox="0 0 50 50" fill="none" xmlns="http://www.w3.org/2000/svg">
<mask id="path-1-outside-1_17237_33595" maskUnits="userSpaceOnUse" x="0.0651855" y="0.0839844" width="49" height="50" fill="black">
<rect fill="white" x="0.0651855" y="0.0839844" width="49" height="50"/>
<path d="M24.9819 47.9173C37.6384 47.9173 47.8985 37.6572 47.8985 25.0007C47.8985 12.3441 37.6384 2.08398 24.9819 2.08398C12.3253 2.08398 2.06519 12.3441 2.06519 25.0007C2.06519 37.6572 12.3253 47.9173 24.9819 47.9173Z"/>
</mask>
<path d="M24.9819 47.9173C37.6384 47.9173 47.8985 37.6572 47.8985 25.0007C47.8985 12.3441 37.6384 2.08398 24.9819 2.08398C12.3253 2.08398 2.06519 12.3441 2.06519 25.0007C2.06519 37.6572 12.3253 47.9173 24.9819 47.9173Z" fill="#4ECC58"/>
<path d="M48.461 25.0007C48.086 25.0007 47.711 25.0007 47.336 25.0007C47.2117 27.3465 46.7343 29.6453 45.9266 31.8068C42.7517 40.5332 34.0041 46.533 24.9819 46.4173C13.5823 46.6927 3.2595 36.4614 3.46102 25.0007C3.10932 13.5512 13.3487 3.03725 24.9819 3.16732C34.1937 2.91711 43.1852 9.2227 46.1327 18.1276C46.8894 20.3298 47.2952 22.6549 47.336 25.0007C47.711 25.0007 48.086 25.0007 48.461 25.0007C48.5036 22.5396 48.16 20.069 47.4325 17.7055C44.626 8.15569 35.1233 0.964895 24.9819 1.00065C12.2014 0.537107 0.427442 12.0365 0.669352 25.0007C0.277256 37.9536 11.9677 49.7355 24.9819 49.4173C35.3128 49.5876 45.0595 42.091 47.6386 32.3627C48.3152 29.9584 48.5871 27.4616 48.461 25.0007ZM47.336 25.0007H48.461H47.336Z" fill="#2A6C7E" mask="url(#path-1-outside-1_17237_33595)"/>
<path d="M19.2421 21.2884C18.9556 21.2884 18.7213 21.054 18.7213 20.7676C18.7213 19.9421 18.0494 19.2702 17.2239 19.2702C16.3984 19.2702 15.7265 19.9421 15.7265 20.7676C15.7265 21.054 15.4921 21.2884 15.2056 21.2884C14.9192 21.2884 14.6848 21.054 14.6848 20.7676C14.6848 19.3665 15.8228 18.2285 17.2239 18.2285C18.6249 18.2285 19.7629 19.3665 19.7629 20.7676C19.7629 21.054 19.5286 21.2884 19.2421 21.2884Z" fill="#1E4D59"/>
<path d="M34.6928 21.2884C34.4063 21.2884 34.172 21.054 34.172 20.7676C34.172 19.9421 33.5001 19.2702 32.6746 19.2702C31.849 19.2702 31.1772 19.9421 31.1772 20.7676C31.1772 21.054 30.9428 21.2884 30.6563 21.2884C30.3699 21.2884 30.1355 21.054 30.1355 20.7676C30.1355 19.3665 31.2735 18.2285 32.6746 18.2285C34.0756 18.2285 35.2136 19.3665 35.2136 20.7676C35.2136 21.054 34.9792 21.2884 34.6928 21.2884Z" fill="#1E4D59"/>
<path d="M36.961 27.6035C36.961 27.778 36.9584 27.9525 36.9506 28.1243C36.9194 28.8145 36.8308 29.4889 36.6902 30.1426C36.2292 32.2832 35.1954 34.2103 33.7553 35.7546C32.9141 36.6608 31.9324 37.4395 30.8464 38.0488C29.1147 39.0254 27.1121 39.5827 24.9819 39.5827C22.7397 39.5827 20.6433 38.9681 18.849 37.8926C17.8699 37.3092 16.9792 36.5853 16.2058 35.7546C14.7683 34.2103 13.7345 32.2832 13.2735 30.1426C13.1329 29.4889 13.0444 28.8145 13.0131 28.1243C13.0053 27.9525 13.0027 27.778 13.0027 27.6035H36.961Z" fill="#1E4D59"/>
<path d="M30.8463 38.0495C29.1145 39.026 27.1119 39.5833 24.9817 39.5833C22.7395 39.5833 20.6431 38.9687 18.8489 37.8932C19.6822 35.3932 22.0416 33.5938 24.8202 33.5938C27.6588 33.5938 30.0598 35.4688 30.8463 38.0495Z" fill="#FF5A5A"/>
</svg>
