<svg width="50" height="50" viewBox="0 0 50 50" fill="none" xmlns="http://www.w3.org/2000/svg">
<mask id="path-1-outside-1_17237_33583" maskUnits="userSpaceOnUse" x="0" y="0.0820312" width="49" height="50" fill="black">
<rect fill="white" y="0.0820312" width="49" height="50"/>
<path d="M24.9167 47.9154C37.5732 47.9154 47.8333 37.6552 47.8333 24.9987C47.8333 12.3422 37.5732 2.08203 24.9167 2.08203C12.2601 2.08203 2 12.3422 2 24.9987C2 37.6552 12.2601 47.9154 24.9167 47.9154Z"/>
</mask>
<path d="M24.9167 47.9154C37.5732 47.9154 47.8333 37.6552 47.8333 24.9987C47.8333 12.3422 37.5732 2.08203 24.9167 2.08203C12.2601 2.08203 2 12.3422 2 24.9987C2 37.6552 12.2601 47.9154 24.9167 47.9154Z" fill="#ACD91A"/>
<path d="M48.3958 24.9987C48.0208 24.9987 47.6458 24.9987 47.2708 24.9987C47.1465 27.3445 46.6691 29.6433 45.8614 31.8049C42.6865 40.5313 33.939 46.5311 24.9167 46.4154C13.5172 46.6908 3.19432 36.4595 3.39583 24.9987C3.04413 13.5492 13.2835 3.0353 24.9167 3.16536C34.1285 2.91516 43.12 9.22075 46.0675 18.1256C46.8243 20.3279 47.23 22.653 47.2708 24.9987C47.6458 24.9987 48.0208 24.9987 48.3958 24.9987C48.4384 22.5376 48.0948 20.0671 47.3673 17.7035C44.5608 8.15374 35.0581 0.962942 24.9167 0.998698C12.1362 0.535154 0.362256 12.0345 0.604167 24.9987C0.21207 37.9516 11.9025 49.7336 24.9167 49.4154C35.2477 49.5856 44.9943 42.089 47.5734 32.3608C48.25 29.9565 48.5219 27.4597 48.3958 24.9987ZM47.2708 24.9987H48.3958H47.2708Z" fill="#2A6C7E" mask="url(#path-1-outside-1_17237_33583)"/>
<path d="M34.8306 21.25C36.5565 21.25 37.9556 19.8509 37.9556 18.125C37.9556 16.3991 36.5565 15 34.8306 15C33.1047 15 31.7056 16.3991 31.7056 18.125C31.7056 19.8509 33.1047 21.25 34.8306 21.25Z" fill="#1E4D59"/>
<path d="M16.125 21.25C17.8509 21.25 19.25 19.8509 19.25 18.125C19.25 16.3991 17.8509 15 16.125 15C14.3991 15 13 16.3991 13 18.125C13 19.8509 14.3991 21.25 16.125 21.25Z" fill="#1E4D59"/>
<path d="M24.8411 34.4967C19.8724 34.4967 15.8281 30.4525 15.8281 25.4837C15.8281 25.1973 16.0625 24.9629 16.349 24.9629C16.6354 24.9629 16.8698 25.1973 16.8698 25.4837C16.8698 29.8796 20.4453 33.4551 24.8411 33.4551C29.237 33.4551 32.8125 29.8796 32.8125 25.4837C32.8125 25.1973 33.0469 24.9629 33.3333 24.9629C33.6198 24.9629 33.8542 25.1973 33.8542 25.4837C33.8542 30.4525 29.8099 34.4967 24.8411 34.4967Z" fill="#1E4D59"/>
</svg>
