<svg width="50" height="50" viewBox="0 0 50 50" fill="none" xmlns="http://www.w3.org/2000/svg">
<mask id="path-1-outside-1_17237_33565" maskUnits="userSpaceOnUse" x="0.0834961" y="0.0820312" width="49" height="50" fill="black">
<rect fill="white" x="0.0834961" y="0.0820312" width="49" height="50"/>
<path d="M25.0002 47.9154C37.6567 47.9154 47.9168 37.6552 47.9168 24.9987C47.9168 12.3422 37.6567 2.08203 25.0002 2.08203C12.3436 2.08203 2.0835 12.3422 2.0835 24.9987C2.0835 37.6552 12.3436 47.9154 25.0002 47.9154Z"/>
</mask>
<path d="M25.0002 47.9154C37.6567 47.9154 47.9168 37.6552 47.9168 24.9987C47.9168 12.3422 37.6567 2.08203 25.0002 2.08203C12.3436 2.08203 2.0835 12.3422 2.0835 24.9987C2.0835 37.6552 12.3436 47.9154 25.0002 47.9154Z" fill="#FC7E1E"/>
<path d="M48.4793 24.9987C48.1043 24.9987 47.7293 24.9987 47.3543 24.9987C47.23 27.3445 46.7526 29.6433 45.9449 31.8049C42.77 40.5313 34.0225 46.5311 25.0002 46.4154C13.6007 46.6908 3.27781 36.4595 3.47933 24.9987C3.12763 13.5492 13.367 3.0353 25.0002 3.16536C34.212 2.91516 43.2035 9.22075 46.151 18.1256C46.9078 20.3279 47.3135 22.653 47.3543 24.9987C47.7293 24.9987 48.1043 24.9987 48.4793 24.9987C48.5219 22.5376 48.1783 20.0671 47.4508 17.7035C44.6443 8.15374 35.1416 0.962942 25.0002 0.998698C12.2197 0.535154 0.445753 12.0345 0.687663 24.9987C0.295566 37.9516 11.986 49.7336 25.0002 49.4154C35.3312 49.5856 45.0778 42.089 47.6569 32.3608C48.3335 29.9565 48.6054 27.4597 48.4793 24.9987ZM47.3543 24.9987H48.4793H47.3543Z" fill="#2A6C7E" mask="url(#path-1-outside-1_17237_33565)"/>
<path d="M34.448 20.7031C36.1739 20.7031 37.573 19.304 37.573 17.5781C37.573 15.8522 36.1739 14.4531 34.448 14.4531C32.7221 14.4531 31.323 15.8522 31.323 17.5781C31.323 19.304 32.7221 20.7031 34.448 20.7031Z" fill="#1E4D59"/>
<path d="M15.7422 20.7031C17.4681 20.7031 18.8672 19.304 18.8672 17.5781C18.8672 15.8522 17.4681 14.4531 15.7422 14.4531C14.0163 14.4531 12.6172 15.8522 12.6172 17.5781C12.6172 19.304 14.0163 20.7031 15.7422 20.7031Z" fill="#1E4D59"/>
<path d="M35.2342 36.6667C34.9478 36.6667 34.7134 36.4323 34.7134 36.1458C34.7134 30.7891 30.3566 26.4323 24.9998 26.4323C19.6431 26.4323 15.2863 30.7891 15.2863 36.1458C15.2863 36.4323 15.0519 36.6667 14.7655 36.6667C14.479 36.6667 14.2446 36.4323 14.2446 36.1458C14.2446 30.2161 19.0701 25.3906 24.9998 25.3906C30.9295 25.3906 35.755 30.2161 35.755 36.1458C35.755 36.4323 35.5207 36.6667 35.2342 36.6667Z" fill="#1E4D59"/>
</svg>
