<svg width="50" height="50" viewBox="0 0 50 50" fill="none" xmlns="http://www.w3.org/2000/svg">
<mask id="path-1-outside-1_17237_33554" maskUnits="userSpaceOnUse" x="0.0834961" y="0.0820312" width="49" height="50" fill="black">
<rect fill="white" x="0.0834961" y="0.0820312" width="49" height="50"/>
<path d="M25.0002 47.9154C37.6567 47.9154 47.9168 37.6552 47.9168 24.9987C47.9168 12.3422 37.6567 2.08203 25.0002 2.08203C12.3436 2.08203 2.0835 12.3422 2.0835 24.9987C2.0835 37.6552 12.3436 47.9154 25.0002 47.9154Z"/>
</mask>
<path d="M25.0002 47.9154C37.6567 47.9154 47.9168 37.6552 47.9168 24.9987C47.9168 12.3422 37.6567 2.08203 25.0002 2.08203C12.3436 2.08203 2.0835 12.3422 2.0835 24.9987C2.0835 37.6552 12.3436 47.9154 25.0002 47.9154Z" fill="#E8354D"/>
<path d="M48.4793 24.9987C48.1043 24.9987 47.7293 24.9987 47.3543 24.9987C47.23 27.3445 46.7526 29.6433 45.9449 31.8049C42.77 40.5313 34.0225 46.5311 25.0002 46.4154C13.6007 46.6908 3.27781 36.4595 3.47933 24.9987C3.12763 13.5492 13.367 3.0353 25.0002 3.16536C34.212 2.91516 43.2035 9.22075 46.151 18.1256C46.9078 20.3279 47.3135 22.653 47.3543 24.9987C47.7293 24.9987 48.1043 24.9987 48.4793 24.9987C48.5219 22.5376 48.1783 20.0671 47.4508 17.7035C44.6443 8.15374 35.1416 0.962942 25.0002 0.998698C12.2197 0.535154 0.445753 12.0345 0.687663 24.9987C0.295566 37.9516 11.986 49.7336 25.0002 49.4154C35.3312 49.5856 45.0778 42.089 47.6569 32.3608C48.3335 29.9565 48.6054 27.4597 48.4793 24.9987ZM47.3543 24.9987H48.4793H47.3543Z" fill="#2A6C7E" mask="url(#path-1-outside-1_17237_33554)"/>
<path d="M20.8647 21.2028C20.7632 21.3044 20.6304 21.3564 20.4976 21.3564C20.3647 21.3564 20.2319 21.3044 20.1304 21.2028L19.6278 20.7002C18.3179 21.8356 16.3335 21.7809 15.0887 20.5361C13.8439 19.2913 13.7892 17.3044 14.9246 15.9945L13.2007 14.2705C12.995 14.0674 12.995 13.7393 13.2007 13.5361C13.4038 13.333 13.7319 13.3304 13.9351 13.5361L20.8647 20.4684C21.0705 20.6716 21.0705 20.9997 20.8647 21.2028Z" fill="#1E4D59"/>
<path d="M36.7994 14.2705L35.0754 15.9945C36.2109 17.3044 36.1562 19.2913 34.9114 20.5361C33.6666 21.7809 31.6822 21.8356 30.3723 20.7002L29.9973 21.0752C29.8958 21.1768 29.7629 21.2288 29.6301 21.2288C29.4973 21.2288 29.3645 21.1768 29.2629 21.0752C29.0572 20.8721 29.0572 20.5439 29.2629 20.3408L36.065 13.5361C36.2681 13.3304 36.5963 13.333 36.7994 13.5361C37.0051 13.7393 37.0051 14.0674 36.7994 14.2705Z" fill="#1E4D59"/>
<path d="M31.7707 33.3646C31.7707 33.651 31.5363 33.8854 31.2498 33.8854C30.9634 33.8854 30.729 33.651 30.729 33.3646C30.729 30.2057 28.1587 27.6354 24.9998 27.6354C21.841 27.6354 19.2707 30.2057 19.2707 33.3646C19.2707 33.651 19.0363 33.8854 18.7498 33.8854C18.4634 33.8854 18.229 33.651 18.229 33.3646C18.229 29.6302 21.2655 26.5938 24.9998 26.5938C28.7342 26.5938 31.7707 29.6302 31.7707 33.3646Z" fill="#1E4D59"/>
</svg>
