<svg width="260" height="260" viewBox="0 0 260 260" fill="none" xmlns="http://www.w3.org/2000/svg">
<path d="M25.0298 53.3107C8.79644 75.5304 0.032648 102.328 9.09853e-05 129.846L41.6001 129.895C41.6222 111.183 47.5816 92.9607 58.6202 77.8513L25.0298 53.3107Z" fill="#47CD89"/>
<path d="M90.6487 6.09892C64.4881 14.4076 41.6287 30.7835 25.3455 52.8804L58.835 77.5586C69.9075 62.5328 85.4519 51.3972 103.241 45.7473L90.6487 6.09892Z" fill="#F0F1F1"/>
<path d="M171.343 6.74932C145.42 -1.94636 117.415 -2.24692 91.3115 5.89039L103.692 45.6055C121.442 40.0721 140.486 40.2765 158.113 46.1895L171.343 6.74932Z" fill="#F0F1F1"/>
<path d="M234.556 52.7466C218.81 31.4357 196.928 15.4453 171.84 6.9172L158.452 46.3037C175.511 52.1028 190.391 62.9763 201.098 77.4677L234.556 52.7466Z" fill="#F0F1F1"/>
<path d="M260 130C260 102.39 251.21 75.4974 234.902 53.2179L201.334 77.7882C212.423 92.9382 218.4 111.225 218.4 130H260Z" fill="#F0F1F1"/>
</svg>
