<svg width="50" height="50" viewBox="0 0 50 50" fill="none" xmlns="http://www.w3.org/2000/svg">
<mask id="path-1-outside-1_17237_33574" maskUnits="userSpaceOnUse" x="0.0834961" y="0.0820312" width="49" height="50" fill="black">
<rect fill="white" x="0.0834961" y="0.0820312" width="49" height="50"/>
<path d="M25.0002 47.9154C37.6567 47.9154 47.9168 37.6552 47.9168 24.9987C47.9168 12.3422 37.6567 2.08203 25.0002 2.08203C12.3436 2.08203 2.0835 12.3422 2.0835 24.9987C2.0835 37.6552 12.3436 47.9154 25.0002 47.9154Z"/>
</mask>
<path d="M25.0002 47.9154C37.6567 47.9154 47.9168 37.6552 47.9168 24.9987C47.9168 12.3422 37.6567 2.08203 25.0002 2.08203C12.3436 2.08203 2.0835 12.3422 2.0835 24.9987C2.0835 37.6552 12.3436 47.9154 25.0002 47.9154Z" fill="#FFCE2B"/>
<path d="M48.4793 24.9987C48.1043 24.9987 47.7293 24.9987 47.3543 24.9987C47.23 27.3445 46.7526 29.6433 45.9449 31.8049C42.77 40.5313 34.0225 46.5311 25.0002 46.4154C13.6007 46.6908 3.27781 36.4595 3.47933 24.9987C3.12763 13.5492 13.367 3.0353 25.0002 3.16536C34.212 2.91516 43.2035 9.22075 46.151 18.1256C46.9078 20.3279 47.3135 22.653 47.3543 24.9987C47.7293 24.9987 48.1043 24.9987 48.4793 24.9987C48.5219 22.5376 48.1783 20.0671 47.4508 17.7035C44.6443 8.15374 35.1416 0.962942 25.0002 0.998698C12.2197 0.535154 0.445753 12.0345 0.687663 24.9987C0.295566 37.9516 11.986 49.7336 25.0002 49.4154C35.3312 49.5856 45.0778 42.089 47.6569 32.3608C48.3335 29.9565 48.6054 27.4597 48.4793 24.9987ZM47.3543 24.9987H48.4793H47.3543Z" fill="#2A6C7E" mask="url(#path-1-outside-1_17237_33574)"/>
<path d="M34.4114 21.25C36.1373 21.25 37.5364 19.8509 37.5364 18.125C37.5364 16.3991 36.1373 15 34.4114 15C32.6855 15 31.2864 16.3991 31.2864 18.125C31.2864 19.8509 32.6855 21.25 34.4114 21.25Z" fill="#1E4D59"/>
<path d="M15.7058 20.793C17.4317 20.793 18.8308 19.3939 18.8308 17.668C18.8308 15.9421 17.4317 14.543 15.7058 14.543C13.9799 14.543 12.5808 15.9421 12.5808 17.668C12.5808 19.3939 13.9799 20.793 15.7058 20.793Z" fill="#1E4D59"/>
<path d="M12.5806 33.8931C12.354 33.8931 12.1483 33.7446 12.0806 33.5181C11.9999 33.242 12.1587 32.953 12.4348 32.8722L37.3176 25.5806C37.591 25.4972 37.8827 25.6587 37.9634 25.9347C38.0441 26.2108 37.8853 26.4998 37.6092 26.5806L12.7264 33.8722C12.677 33.8853 12.6301 33.8931 12.5806 33.8931Z" fill="#1E4D59"/>
</svg>
