<svg width="34" height="34" viewBox="0 0 34 34" fill="none" xmlns="http://www.w3.org/2000/svg">
<path d="M0.5 7.83333C0.5 3.78325 3.78325 0.5 7.83333 0.5H26.1667C30.2168 0.5 33.5 3.78325 33.5 7.83333V26.1667C33.5 30.2168 30.2168 33.5 26.1667 33.5H7.83333C3.78325 33.5 0.5 30.2168 0.5 26.1667V7.83333Z" fill="white"/>
<path d="M17 1C26.1127 1 33.5 8.16344 33.5 17C33.5 25.8366 26.1127 33 17 33C7.8873 33 0.5 25.8366 0.5 17C0.5 8.16344 7.8873 1 17 1ZM17 7.51758C11.5999 7.5176 7.22268 11.7626 7.22266 16.999C7.22266 22.2355 11.5999 26.4804 17 26.4805C22.4001 26.4805 26.7773 22.2355 26.7773 16.999C26.7773 11.7626 22.4001 7.51758 17 7.51758Z" fill="#00FF00"/>
</svg>
