<svg width="48" height="48" viewBox="0 0 48 48" fill="none" xmlns="http://www.w3.org/2000/svg">
<path d="M0 24C0 10.7452 10.7452 0 24 0C37.2548 0 48 10.7452 48 24C48 37.2548 37.2548 48 24 48C10.7452 48 0 37.2548 0 24Z" fill="#EAF0F2"/>
<path d="M26.2822 0.108398C27.2788 0.202411 28.2575 0.357213 29.2148 0.569336C29.1663 0.782608 29.2985 0.995675 29.5117 1.04688C30.7245 1.33704 31.9012 1.72105 33.0332 2.19043C33.2358 2.27443 33.4675 2.1795 33.5537 1.97852C34.4658 2.37476 35.3482 2.82606 36.1973 3.32812C36.0852 3.51573 36.1454 3.75924 36.332 3.87402C37.3881 4.52255 38.3895 5.25213 39.3271 6.05371C39.4938 6.19616 39.7426 6.1771 39.8867 6.0127C40.629 6.6688 41.3302 7.37005 41.9863 8.1123C41.822 8.2564 41.8039 8.50623 41.9463 8.67285C42.7479 9.6105 43.4775 10.6119 44.126 11.668C44.2407 11.8545 44.4833 11.9136 44.6709 11.8018C45.173 12.6508 45.6242 13.5332 46.0205 14.4453C45.8198 14.5316 45.7256 14.7644 45.8096 14.9668C46.279 16.0988 46.663 17.2755 46.9531 18.4883C47.0043 18.7012 47.2167 18.8323 47.4297 18.7842C47.6419 19.7415 47.7966 20.7202 47.8906 21.7168C47.6731 21.7366 47.5114 21.9281 47.5283 22.1465C47.5758 22.758 47.5996 23.3761 47.5996 24C47.5996 24.6239 47.5758 25.242 47.5283 25.8535C47.5114 26.0719 47.6732 26.2623 47.8906 26.2822C47.7966 27.2788 47.6418 28.2575 47.4297 29.2148C47.2167 29.1669 47.0043 29.2988 46.9531 29.5117C46.6992 30.5732 46.3734 31.6071 45.9814 32.6074L45.8096 33.0332C45.7257 33.2355 45.8201 33.4673 46.0205 33.5537C45.6242 34.4658 45.173 35.3482 44.6709 36.1973C44.507 36.0998 44.3007 36.1332 44.1748 36.2676L44.126 36.332C43.5585 37.2562 42.9287 38.1384 42.2432 38.9727L41.9463 39.3271C41.804 39.4936 41.8224 39.7426 41.9863 39.8867C41.3302 40.629 40.629 41.3302 39.8867 41.9863C39.7607 41.843 39.5547 41.8111 39.3936 41.9004L39.3271 41.9463C38.5067 42.6477 37.6376 43.2939 36.7256 43.8789L36.332 44.126C36.1456 44.2406 36.0858 44.4834 36.1973 44.6709C35.3482 45.173 34.4658 45.6242 33.5537 46.0205C33.4782 45.8454 33.2921 45.7511 33.1113 45.7861L33.0332 45.8096C31.9012 46.279 30.7245 46.663 29.5117 46.9531C29.2988 47.0042 29.1669 47.2167 29.2148 47.4297C28.2575 47.6418 27.2788 47.7966 26.2822 47.8906C26.2623 47.6732 26.0719 47.5114 25.8535 47.5283C25.242 47.5758 24.6239 47.5996 24 47.5996C23.3761 47.5996 22.758 47.5758 22.1465 47.5283C21.9281 47.5114 21.7366 47.6731 21.7168 47.8906C20.7202 47.7966 19.7415 47.6419 18.7842 47.4297C18.8323 47.2167 18.7012 47.0043 18.4883 46.9531L18.0352 46.8398C16.9819 46.5656 15.9574 46.2203 14.9668 45.8096L14.8887 45.7861C14.7077 45.7511 14.5208 45.8451 14.4453 46.0205C13.5332 45.6242 12.6508 45.173 11.8018 44.6709C11.9136 44.4833 11.8545 44.2407 11.668 44.126L11.2744 43.8789C10.3624 43.2939 9.49332 42.6477 8.67285 41.9463L8.60645 41.9004C8.44507 41.811 8.2383 41.8426 8.1123 41.9863C7.37005 41.3302 6.6688 40.629 6.0127 39.8867C6.1771 39.7426 6.19616 39.4938 6.05371 39.3271L5.75684 38.9727C5.0713 38.1384 4.44153 37.2562 3.87402 36.332C3.75924 36.1454 3.51573 36.0852 3.32812 36.1973C2.82606 35.3482 2.37476 34.4658 1.97852 33.5537C2.1795 33.4675 2.27443 33.2358 2.19043 33.0332C1.72105 31.9012 1.33704 30.7245 1.04688 29.5117C0.995677 29.2985 0.78261 29.1663 0.569336 29.2148C0.357213 28.2575 0.202411 27.2788 0.108398 26.2822C0.326345 26.2628 0.488671 26.0722 0.47168 25.8535C0.436056 25.3949 0.413329 24.9325 0.404297 24.4668L0.400391 24C0.400391 23.5321 0.413589 23.0675 0.44043 22.6064L0.47168 22.1465C0.488674 21.9277 0.326388 21.7362 0.108398 21.7168C0.202451 20.7202 0.357176 19.7415 0.569336 18.7842C0.755957 18.8268 0.94242 18.7318 1.02051 18.5645L1.04688 18.4883C1.30083 17.4268 1.62655 16.3929 2.01855 15.3926L2.19043 14.9668C2.27448 14.7641 2.17974 14.5314 1.97852 14.4453C2.37478 13.5333 2.82604 12.6508 3.32812 11.8018C3.4922 11.9 3.69902 11.8671 3.8252 11.7324L3.87402 11.668C4.52255 10.6119 5.25213 9.6105 6.05371 8.67285C6.1963 8.50605 6.17755 8.25633 6.0127 8.1123C6.66881 7.37005 7.37005 6.66881 8.1123 6.0127C8.25633 6.17755 8.50605 6.1963 8.67285 6.05371C9.49332 5.3523 10.3624 4.70613 11.2744 4.12109L11.668 3.87402C11.8547 3.75916 11.9141 3.51579 11.8018 3.32812C12.6508 2.82604 13.5333 2.37478 14.4453 1.97852C14.5205 2.1544 14.7074 2.24894 14.8887 2.21387L14.9668 2.19043C15.9574 1.77969 16.9819 1.43444 18.0352 1.16016L18.4883 1.04688C18.7015 0.99566 18.8328 0.78268 18.7842 0.569336C19.7415 0.357176 20.7202 0.202451 21.7168 0.108398C21.7362 0.326388 21.9277 0.488674 22.1465 0.47168C22.758 0.424182 23.3761 0.400391 24 0.400391C24.6239 0.400391 25.242 0.424182 25.8535 0.47168C26.0722 0.488671 26.2628 0.326345 26.2822 0.108398Z" stroke="#9DBBC4" stroke-width="0.8" stroke-linecap="round" stroke-linejoin="round" stroke-dasharray="4 4"/>
<path d="M31.875 24.875H37.125" stroke="#709DA9" stroke-width="1.6" stroke-linecap="round" stroke-linejoin="round"/>
<path d="M34.5 22.25V27.5" stroke="#709DA9" stroke-width="1.6" stroke-linecap="round" stroke-linejoin="round"/>
<path d="M21.8125 27.5C25.4369 27.5 28.375 24.5619 28.375 20.9375C28.375 17.3131 25.4369 14.375 21.8125 14.375C18.1881 14.375 15.25 17.3131 15.25 20.9375C15.25 24.5619 18.1881 27.5 21.8125 27.5Z" stroke="#709DA9" stroke-width="1.6" stroke-linecap="round" stroke-linejoin="round"/>
<path d="M12.625 31.875C14.8727 29.2008 18.0456 27.5 21.8125 27.5C25.5794 27.5 28.7523 29.2008 31 31.875" stroke="#709DA9" stroke-width="1.6" stroke-linecap="round" stroke-linejoin="round"/>
</svg>
