<svg width="48" height="48" viewBox="0 0 48 48" fill="none" xmlns="http://www.w3.org/2000/svg">
<path d="M0 24C0 10.7452 10.7452 0 24 0C37.2548 0 48 10.7452 48 24C48 37.2548 37.2548 48 24 48C10.7452 48 0 37.2548 0 24Z" fill="#D9D6FE"/>
<path d="M24 0.375C37.0477 0.375 47.625 10.9523 47.625 24C47.625 37.0477 37.0477 47.625 24 47.625C10.9523 47.625 0.375 37.0477 0.375 24C0.375 10.9523 10.9523 0.375 24 0.375Z" stroke="#D9D6FE" stroke-width="0.75"/>
<path d="M14.6676 31H12.1364L16.745 17.9091H19.6726L24.2876 31H21.7564L18.2599 20.5938H18.1577L14.6676 31ZM14.7507 25.8672H21.6541V27.772H14.7507V25.8672ZM26.0119 31V17.9091H30.921C31.9267 17.9091 32.7704 18.0966 33.4522 18.4716C34.1383 18.8466 34.6561 19.3622 35.0055 20.0185C35.3592 20.6705 35.536 21.4119 35.536 22.2429C35.536 23.0824 35.3592 23.8281 35.0055 24.4801C34.6518 25.1321 34.1298 25.6456 33.4395 26.0206C32.7491 26.3913 31.899 26.5767 30.889 26.5767H27.6355V24.6271H30.5694C31.1575 24.6271 31.639 24.5249 32.014 24.3203C32.389 24.1158 32.666 23.8345 32.845 23.4766C33.0282 23.1186 33.1199 22.7074 33.1199 22.2429C33.1199 21.7784 33.0282 21.3693 32.845 21.0156C32.666 20.6619 32.3869 20.3871 32.0076 20.1911C31.6326 19.9908 31.149 19.8906 30.5566 19.8906H28.3833V31H26.0119Z" fill="#6938EF"/>
</svg>
