<svg width="20" height="20" viewBox="0 0 20 20" fill="none" xmlns="http://www.w3.org/2000/svg">
<path d="M10.0001 6.25065C10.0001 7.86148 8.69425 9.16732 7.08341 9.16732C5.47258 9.16732 4.16675 7.86148 4.16675 6.25065C4.16675 4.63982 5.47258 3.33398 7.08341 3.33398C8.69425 3.33398 10.0001 4.63982 10.0001 6.25065Z" stroke="#2A6C7E" stroke-width="1.5"/>
<path d="M11.25 9.16732C12.8608 9.16732 14.1667 7.86148 14.1667 6.25065C14.1667 4.63982 12.8608 3.33398 11.25 3.33398" stroke="#2A6C7E" stroke-width="1.5" stroke-linecap="round"/>
<path d="M10.9525 16.666H3.21437C2.35964 16.666 1.66675 16.0264 1.66675 15.2374C1.66675 13.265 3.39898 11.666 5.5358 11.666H8.63103C9.50204 11.666 10.3058 11.9317 10.9525 12.38" stroke="#2A6C7E" stroke-width="1.5" stroke-linecap="round" stroke-linejoin="round"/>
<path d="M15.8333 11.666V16.666M18.3333 14.166L13.3333 14.166" stroke="#2A6C7E" stroke-width="1.5" stroke-linecap="round"/>
</svg>
