<svg width="80" height="81" viewBox="0 0 80 81" fill="none" xmlns="http://www.w3.org/2000/svg">
<g clip-path="url(#clip0_16647_16644)">
<path d="M57.5 6.75V71.75C57.5 75.2 54.7 78 51.25 78H20V63C20 61.625 18.875 60.5 17.5 60.5H2.5V6.75C2.5 3.3 5.3 0.5 8.75 0.5H51.25C54.7 0.5 57.5 3.3 57.5 6.75Z" fill="#AAD7FD"/>
<path d="M17.5 60.5C18.8813 60.5 20 61.6187 20 63V78C19.3375 78 18.7 77.7375 18.2375 77.2625L3.2375 62.2625C2.7625 61.8 2.5 61.1625 2.5 60.5H17.5Z" fill="#48A1FF"/>
<path d="M48.75 20.5H30C28.62 20.5 27.5 19.38 27.5 18C27.5 16.62 28.62 15.5 30 15.5H48.75C50.13 15.5 51.25 16.62 51.25 18C51.25 19.38 50.13 20.5 48.75 20.5Z" fill="#F2F2FD"/>
<path d="M36.25 35.5H30C28.62 35.5 27.5 34.38 27.5 33C27.5 31.62 28.62 30.5 30 30.5H36.25C37.63 30.5 38.75 31.62 38.75 33C38.75 34.38 37.63 35.5 36.25 35.5Z" fill="#F2F2FD"/>
<path d="M14.9998 50.5395C14.3598 50.5395 13.7198 50.2957 13.2323 49.807L10.7323 47.307C9.75606 46.3307 9.75606 44.7482 10.7323 43.772C11.7073 42.7957 13.2923 42.7957 14.2673 43.772L14.9998 44.5045L18.2323 41.2732C19.2073 40.297 20.7923 40.297 21.7673 41.2732C22.7436 42.2495 22.7436 43.832 21.7673 44.8082L16.7673 49.8082C16.2798 50.2957 15.6398 50.5395 14.9998 50.5395Z" fill="#2C39FD"/>
<path d="M14.9998 35.5395C14.3598 35.5395 13.7198 35.2957 13.2323 34.807L10.7323 32.307C9.75606 31.3307 9.75606 29.7482 10.7323 28.772C11.7073 27.7957 13.2923 27.7957 14.2673 28.772L14.9998 29.5045L18.2323 26.2732C19.2073 25.297 20.7923 25.297 21.7673 26.2732C22.7436 27.2495 22.7436 28.832 21.7673 29.8082L16.7673 34.8082C16.2798 35.2957 15.6398 35.5395 14.9998 35.5395Z" fill="#2C39FD"/>
<path d="M14.9998 20.5395C14.3598 20.5395 13.7198 20.2957 13.2323 19.807L10.7323 17.307C9.75606 16.3307 9.75606 14.7482 10.7323 13.772C11.7073 12.7957 13.2923 12.7957 14.2673 13.772L14.9998 14.5045L18.2323 11.2732C19.2073 10.297 20.7923 10.297 21.7673 11.2732C22.7436 12.2495 22.7436 13.832 21.7673 14.8082L16.7673 19.8082C16.2798 20.2957 15.6398 20.5395 14.9998 20.5395Z" fill="#2C39FD"/>
<path d="M54.9998 80.5C68.1166 80.5 78.7498 69.8668 78.7498 56.75C78.7498 43.6332 68.1166 33 54.9998 33C41.8831 33 31.2498 43.6332 31.2498 56.75C31.2498 69.8668 41.8831 80.5 54.9998 80.5Z" fill="#2C39FD"/>
<path d="M48.75 66.75C48.11 66.75 47.47 66.5063 46.9825 66.0175C46.0062 65.0413 46.0062 63.4587 46.9825 62.4825L52.5 56.9638V45.5C52.5 44.12 53.62 43 55 43C56.38 43 57.5 44.12 57.5 45.5V58C57.5 58.6625 57.2362 59.2988 56.7675 59.7675L50.5175 66.0175C50.03 66.5063 49.39 66.75 48.75 66.75Z" fill="#F2F2FD"/>
</g>
<defs>
<clipPath id="clip0_16647_16644">
<rect width="80" height="80" fill="white" transform="translate(0 0.5)"/>
</clipPath>
</defs>
</svg>
