<svg width="32" height="32" viewBox="0 0 32 32" fill="none" xmlns="http://www.w3.org/2000/svg">
<path d="M21.3333 13.332H24C24.2357 13.332 24.4618 13.4257 24.6285 13.5924C24.7952 13.7591 24.8889 13.9852 24.8889 14.2209V24.8876C24.8889 25.1233 24.7952 25.3494 24.6285 25.5161C24.4618 25.6828 24.2357 25.7765 24 25.7765H7.99997C7.76422 25.7765 7.53813 25.6828 7.37143 25.5161C7.20473 25.3494 7.11108 25.1233 7.11108 24.8876V14.2209C7.11108 13.9852 7.20473 13.7591 7.37143 13.5924C7.53813 13.4257 7.76422 13.332 7.99997 13.332H10.6666" stroke="#558998" stroke-width="1.77778" stroke-linecap="round" stroke-linejoin="round"/>
<path d="M11.5557 8.8878L16.0001 4.44336L20.4446 8.8878" stroke="#558998" stroke-width="1.77778" stroke-linecap="round" stroke-linejoin="round"/>
<path d="M16 4.44336V16.8878" stroke="#558998" stroke-width="1.77778" stroke-linecap="round" stroke-linejoin="round"/>
</svg>
