<svg width="20" height="20" viewBox="0 0 20 20" fill="none" xmlns="http://www.w3.org/2000/svg">
<path d="M10 17.5C14.1421 17.5 17.5 14.1421 17.5 10C17.5 5.85786 14.1421 2.5 10 2.5C5.85786 2.5 2.5 5.85786 2.5 10C2.5 14.1421 5.85786 17.5 10 17.5Z" stroke="white" stroke-width="1.33333" stroke-linecap="round" stroke-linejoin="round"/>
<path d="M7.1875 8.25C7.29105 8.25 7.375 8.33395 7.375 8.4375C7.375 8.54105 7.29105 8.625 7.1875 8.625C7.08395 8.625 7 8.54105 7 8.4375C7 8.33395 7.08395 8.25 7.1875 8.25Z" fill="white" stroke="white" stroke-width="1.5"/>
<path d="M11.875 8.4375H13.75" stroke="white" stroke-width="1.33333" stroke-linecap="round" stroke-linejoin="round"/>
<path d="M13.125 11.875C12.4766 12.9961 11.3883 13.75 10 13.75C8.61172 13.75 7.52344 12.9961 6.875 11.875" stroke="white" stroke-width="1.33333" stroke-linecap="round" stroke-linejoin="round"/>
</svg>
