<svg width="390" height="130" viewBox="0 0 390 130" fill="none" xmlns="http://www.w3.org/2000/svg">
<g clip-path="url(#clip0_16810_8736)">
<path d="M19.276 79.3987L12.0332 76.0063L17.4307 82.2049L9.63672 84.9244L18.2801 85.6222L14.9526 93.9708L20.978 87.8039L24.2821 95.7328L24.2805 87.4142L31.5215 90.8066L26.1257 84.608L33.9197 81.8884L25.2764 81.1906L28.6038 72.8421L22.5784 79.009L19.2743 71.0801L19.276 79.3987Z" fill="#FFD23F"/>
<path d="M127.422 9.11133L134.547 15.19L123.537 20.6824L135.463 19.8681L132.342 27.8985L138.627 21.6334L143.28 32.5217L143.435 20.1495L152.751 23.1522L145.627 17.0735L156.638 11.5811L144.711 12.3955L147.832 4.36664L141.547 10.6302L137.005 0H136.892L136.74 12.1157L127.422 9.11133Z" fill="#FD8CC5"/>
<path d="M117.435 100.943C120.264 100.943 122.558 98.4565 122.558 95.389C122.558 92.3216 120.264 89.835 117.435 89.835C114.606 89.835 112.312 92.3216 112.312 95.389C112.312 98.4565 114.606 100.943 117.435 100.943Z" fill="#FFD33F"/>
<path d="M185.142 45.5546L186.137 47.4414V44.5986C185.878 44.975 185.545 45.3048 185.142 45.5546Z" fill="#F25724"/>
<path d="M180.557 36.8726L182.172 39.9319C183.541 39.0826 185.225 39.419 186.137 40.6464V36.293C184.39 35.6186 182.344 35.7618 180.557 36.8726Z" fill="#F25724"/>
<path d="M47.5053 42.8317L44.9123 46.5638L49.3972 49.6798L47.8317 51.933L50.8794 54.0514L54.3983 48.9853L49.9134 45.8694L52.5064 42.1372L48.298 39.2145L50.2249 36.4399L47.1772 34.3232L43.2969 39.9089L47.5053 42.8317Z" fill="#FD8CC5"/>
<path d="M183.163 107.643L185.642 105.676L177.951 94.2383L175.473 96.2051L183.163 107.643Z" fill="#03BC65"/>
<path d="M88.5809 48.8332C87.102 52.2106 87.4151 55.6113 89.2804 56.429C91.1456 57.245 93.8568 55.17 95.3357 51.7909C96.8146 48.4135 96.5015 45.0128 94.6362 44.1951C92.771 43.379 90.0598 45.4541 88.5809 48.8332Z" fill="#F25724"/>
<path d="M84.7919 4.69306C85.483 5.96375 86.8486 6.60825 88.3924 6.57827C89.7297 7.4143 91.212 7.56585 92.3844 6.81642C93.5568 6.067 94.1513 4.58647 94.123 2.91276C94.6276 1.96349 94.8608 0.945939 94.7675 0H85.0167C85.0117 0.119908 85.0101 0.241481 85.0117 0.364719C84.2406 1.81527 84.1007 3.42237 84.7919 4.69306Z" fill="#03BC65"/>
<path d="M69.0059 78.3044C69.0675 79.3153 69.9385 80.0847 70.9494 80.0231C71.9603 79.9614 72.7297 79.0904 72.6681 78.0796C72.6065 77.0687 71.7355 76.2993 70.7246 76.3609C69.7137 76.4225 68.9443 77.2935 69.0059 78.3044Z" fill="#18A2DD"/>
<path d="M155.166 71.4617L155.819 68.429L150.227 67.2632L151.529 61.2096L148.728 60.625L146.773 69.7113L155.166 71.4617Z" fill="#FD8CC5"/>
<path d="M-9.59363 21.3222C-9.61361 24.135 -7.15717 26.4332 -4.10785 26.4566C-1.05853 26.4782 1.43122 24.2166 1.45121 21.4021C1.47119 18.5893 -0.98525 16.291 -4.03457 16.2677C-7.08389 16.2461 -9.57364 18.5077 -9.59363 21.3222Z" fill="#03BC65"/>
<path d="M76.7317 127.729L72.798 115.653L60.0562 118.784C62.2295 125.454 69.6954 129.459 76.7317 127.729Z" fill="#03BC65"/>
<path d="M383.434 107.344C385.366 107.557 386.619 107.7 389.571 108.01L389.958 102.764C387.02 102.456 385.776 102.313 383.851 102.101C381.015 101.788 378.785 101.542 375.69 101.252C375.79 99.943 375.902 98.4941 376.04 96.7071L370.819 96.1426C370.583 99.2269 370.138 104.901 370.058 105.935C370.058 105.935 380.603 107.033 383.436 107.344H383.434Z" fill="#F35724"/>
<path d="M330.41 121.853L338.832 125.002L332.705 118.357L338.312 116.172L332.104 116.292L336.532 106.205L328.936 114.104L326.923 109.686L326.733 114.352L318.311 111.203L324.436 117.848L318.831 120.034L325.039 119.913L320.611 130L328.207 122.101L330.22 126.521L330.41 121.853Z" fill="#FFD23F"/>
<path d="M275.937 103.663L279.421 84.5258L275.266 83.6465L271.784 102.783L275.937 103.663Z" fill="#F25724"/>
<path d="M241.75 110.83L243.425 112.825L241.425 114.505L242.723 116.037L244.718 114.36L246.398 116.36L247.93 115.063L246.253 113.07L248.253 111.387L246.956 109.857L244.963 111.532L243.281 109.532L241.75 110.83Z" fill="#FD8CC5"/>
<path d="M298.86 27.208L305.762 27.1247L304.416 7.36328L297.513 7.44655L298.86 27.208Z" fill="#FFD23F"/>
<path d="M377.152 44.2579C376.329 45.6852 376.821 47.5088 378.25 48.3315C379.677 49.1542 381.5 48.6629 382.323 47.234C383.146 45.8067 382.655 43.9831 381.226 43.1604C379.798 42.3377 377.975 42.829 377.152 44.2579Z" fill="#18A2DD"/>
<path d="M351.623 11.2788C349.82 15.9186 352.026 21.3727 356.541 23.4361L358.247 19.0512C356.085 18.0636 355.027 15.4523 355.892 13.229C356.756 11.0074 359.218 10.0031 361.379 10.9907L363.085 6.60575C358.57 4.54234 353.429 6.63906 351.625 11.2788H351.623Z" fill="#FFD23F"/>
<path d="M320.474 59.3604L319.197 63.2307L327.617 66.0669L325.066 73.7926L328.643 74.95L332.473 63.3539L320.474 59.3604Z" fill="#FD8CC5"/>
<path d="M237.74 20.7741L229.609 21.0522L236.824 23.9183L226.525 33.7691L240.781 28.5547L241.388 37.338L244.005 29.7089L254.442 39.8877L248.64 26.1016L256.77 25.8235L249.556 22.9557L259.854 13.1066L245.599 18.3193L244.992 9.5377L242.374 17.1668L231.937 6.98633L237.74 20.7741Z" fill="#F35724"/>
<path d="M212.603 92.1709C215.567 91.8636 217.7 89.009 217.367 85.7951C217.034 82.5812 214.361 80.225 211.396 80.5323C208.432 80.8397 206.299 83.6943 206.633 86.9082C206.966 90.1221 209.639 92.4783 212.603 92.1709Z" fill="#03BC65"/>
</g>
<defs>
<clipPath id="clip0_16810_8736">
<rect width="684.144" height="130" fill="white" transform="translate(-146.939)"/>
</clipPath>
</defs>
</svg>
