<svg width="100" height="100" viewBox="0 0 100 100" fill="none" xmlns="http://www.w3.org/2000/svg">
<path d="M56.6172 80.4785H89.0338V91.7639H56.6172V80.4785Z" fill="#93CF00"/>
<path d="M50.5664 1.95312H74.9662V9.21289H50.5664V1.95312Z" fill="#009DA2"/>
<path d="M47.041 9.21289H89.0338V72.4896H47.041V9.21289Z" fill="#93CF00"/>
<path d="M84.3467 13.9004V91.7633H51.7289V13.9004H84.3467Z" fill="#ABE200"/>
<path d="M47.041 59.3281H81.6773V66.5313H47.041V59.3281Z" fill="#D2F7FF"/>
<path d="M47.041 43.6953H81.6773V50.8984H47.041V43.6953Z" fill="#D2F7FF"/>
<path d="M4.12891 28.8301H56.6174V91.7635H4.12891V28.8301Z" fill="#33A6FB"/>
<path d="M51.9297 33.5176V87.076H8.81621V33.5176H51.9297Z" fill="#57BFFF"/>
<path d="M4.12891 28.8301H56.6174V33.5176H4.12891V28.8301Z" fill="#0087FF"/>
<path d="M1.95312 22.5469H59.1102V28.8305H1.95312V22.5469Z" fill="#1262B2"/>
<path d="M8.01367 12.7637H40.3703V22.5457H8.01367V12.7637Z" fill="#6CACDD"/>
<path d="M8.01367 17.8594H40.3703V22.5469H8.01367V17.8594Z" fill="#4695C6"/>
<path d="M1.95312 91.7637H98.0469V98.0473H1.95312V91.7637Z" fill="#417195"/>
<path d="M4.12891 74.9609H56.6174V80.4783H4.12891V74.9609Z" fill="#AFEEFF"/>
<path d="M21.7139 80.4766H39.032V91.7619H21.7139V80.4766Z" fill="#D2F7FF"/>
<path d="M29.2012 80.4785H31.5449V91.7639H29.2012V80.4785Z" fill="#91CAED"/>
<path d="M26.6191 34.9609H34.1287V42.4705H26.6191V34.9609Z" fill="#D2F7FF"/>
<path d="M41.3711 34.9609H48.8807V42.4705H41.3711V34.9609Z" fill="#D2F7FF"/>
<path d="M19.375 42.4707H11.8654V34.9611H19.375V42.4707Z" fill="#D2F7FF"/>
<path d="M26.6191 48.1406H34.1287V55.6502H26.6191V48.1406Z" fill="#D2F7FF"/>
<path d="M41.3711 48.1406H48.8807V55.6502H41.3711V48.1406Z" fill="#D2F7FF"/>
<path d="M19.375 55.6504H11.8654V48.1408H19.375V55.6504Z" fill="#D2F7FF"/>
<path d="M26.6191 61.3203H34.1287V68.8299H26.6191V61.3203Z" fill="#D2F7FF"/>
<path d="M41.3711 61.3203H48.8807V68.8299H41.3711V61.3203Z" fill="#D2F7FF"/>
<path d="M19.375 68.832H11.8654V61.3225H19.375V68.832Z" fill="#D2F7FF"/>
<path d="M56.6172 72.4902H92.2521V80.4787H56.6172V72.4902Z" fill="#49A549"/>
<path d="M61.6406 80.4766H74.4352V91.7619H61.6406V80.4766Z" fill="#D2F7FF"/>
<path d="M66.8652 80.4766H69.209V91.7619H66.8652V80.4766Z" fill="#91CAED"/>
<path d="M72.7978 2.37404C74.1887 1.81282 75.7431 1.81282 77.134 2.37404L93.2783 8.88785C96.2157 10.073 98.1139 12.9512 98.0452 16.118C97.962 19.9598 97.778 25.3703 97.3713 30.5211C96.8817 36.7224 94.8862 40.7185 93.5827 42.7222C92.9958 43.6244 92.2389 44.4024 91.3598 45.0235C88.2901 47.1923 79.3347 53.2426 74.9659 53.2426C70.5971 53.2426 61.6417 47.1923 58.5719 45.0235C57.6928 44.4024 56.936 43.6244 56.3491 42.7222C55.0456 40.7185 53.05 36.7224 52.5605 30.5211C52.1538 25.3703 51.9698 19.9598 51.8866 16.118C51.8179 12.9512 53.7161 10.073 56.6535 8.88785L72.7978 2.37404Z" fill="#3451C6"/>
<path d="M74.9659 50.8988C72.5264 50.8988 66.6222 47.8413 59.9243 43.1093C59.2769 42.6518 58.735 42.0916 58.3137 41.444C57.2341 39.7846 55.3547 36.1351 54.8969 30.3367C54.4891 25.172 54.3091 19.7262 54.2297 16.0672C54.1825 13.8886 55.509 11.877 57.5304 11.0614L73.6748 4.5476C74.087 4.38128 74.5214 4.29688 74.966 4.29688C75.4105 4.29688 75.8449 4.38128 76.257 4.5476L92.4012 11.0614C94.4227 11.877 95.7492 13.8886 95.7021 16.0672C95.6227 19.7254 95.4427 25.1706 95.0348 30.3367C94.5771 36.1347 92.6977 39.7845 91.6181 41.4441C91.1969 42.0915 90.6549 42.6517 90.0074 43.1093C83.3097 47.8413 77.4056 50.8988 74.9659 50.8988Z" fill="#0087FF"/>
<path d="M74.9658 12.0442C75.613 12.0442 76.1377 11.5195 76.1377 10.8723V2.07288C75.3646 1.91321 74.5671 1.91321 73.7939 2.07289V10.8723C73.7939 11.5195 74.3187 12.0442 74.9658 12.0442Z" fill="#0087FF"/>
<path d="M59.6428 15.3995C59.6428 15.3995 56.6545 12.4112 54.4738 10.2305C53.8789 10.7536 53.3716 11.3646 52.9678 12.0391C55.1326 14.2039 57.9856 17.0569 57.9856 17.0569C59.1121 18.1173 60.7055 16.5303 59.6428 15.3995Z" fill="#0087FF"/>
<path d="M95.4593 10.2305L90.0688 15.6209C89.6112 16.0786 89.6112 16.8205 90.0688 17.2782C90.5264 17.7358 91.2685 17.7358 91.7261 17.2782C91.7261 17.2782 94.4174 14.587 96.9653 12.0391C96.5614 11.3646 96.0541 10.7536 95.4593 10.2305Z" fill="#0087FF"/>
<path d="M74.9658 44.7461C74.3187 44.7461 73.7939 45.2708 73.7939 45.918V53.1203C74.211 53.1971 74.6053 53.2419 74.9658 53.2419C75.3263 53.2419 75.7206 53.1971 76.1377 53.1203V45.918C76.1377 45.2708 75.613 44.7461 74.9658 44.7461Z" fill="#0087FF"/>
<path d="M74.9657 48.5098C74.9008 48.5098 73.3234 48.4792 68.603 45.8219C65.6108 44.1376 62.7447 42.1769 61.3026 41.158C60.9033 40.876 60.5714 40.5339 60.3159 40.1412C59.3601 38.6719 57.6944 35.4198 57.2782 30.1484C56.8749 25.0401 56.6965 19.6432 56.6179 16.0152C56.5921 14.8235 57.3179 13.7229 58.4242 13.2765L74.5684 6.76268C74.6952 6.71153 74.8289 6.68555 74.9657 6.68555C75.1025 6.68555 75.2362 6.71153 75.363 6.76268L91.5073 13.2766C92.6135 13.7229 93.3394 14.8235 93.3135 16.0153C93.2349 19.6428 93.0566 25.0393 92.6532 30.1484C92.237 35.4198 90.5713 38.6719 89.6155 40.1413C89.36 40.5339 89.0281 40.876 88.6289 41.158C87.1867 42.1769 84.3206 44.1376 81.3285 45.8219C76.608 48.4791 75.0306 48.5098 74.9657 48.5098Z" fill="#FFD300"/>
<path d="M74.966 43.6993C74.3186 43.4712 73.0382 42.9385 70.9027 41.7364C68.1835 40.2057 65.5526 38.4161 64.1449 37.4256C63.5251 36.4213 62.2797 33.9356 61.9514 29.7786C61.6005 25.3328 61.4232 20.6478 61.334 17.1565L74.966 11.6562L88.5981 17.1566C88.5088 20.6478 88.3316 25.3327 87.9805 29.7786C87.6523 33.9354 86.4069 36.4214 85.787 37.4257C84.3797 38.4159 81.7488 40.2056 79.0295 41.7364C76.8938 42.9385 75.6133 43.4712 74.966 43.6993Z" fill="#FFEE93"/>
<path d="M85.0362 19.1358C83.6692 17.9186 81.5746 18.0403 80.3579 19.4072L72.3727 28.376L69.4595 25.4628C66.2317 22.4793 61.7878 26.916 64.7734 30.1492L70.1695 35.5452C71.4527 36.8825 73.7851 36.8146 74.9874 35.4055L85.3076 23.8141C86.5246 22.4472 86.403 20.3527 85.0362 19.1358Z" fill="#93CF00"/>
<path d="M72.5058 34.163C72.2413 34.163 72.0057 34.0754 71.8591 33.9226L66.4676 28.5305C66.0317 28.0423 66.1067 27.6966 66.2026 27.4776C66.3665 27.103 66.7603 26.8205 67.1185 26.8205C67.3457 26.8205 67.5879 26.9341 67.8387 27.1583L72.4698 31.7896L82.1067 20.9656C82.3585 20.6829 82.6693 20.6406 82.8321 20.6406C83 20.6406 83.2479 20.6833 83.4759 20.8863C83.737 21.1188 83.7906 21.4047 83.7993 21.5545C83.808 21.7043 83.7878 21.9945 83.5554 22.2555C83.5554 22.2556 76.9519 29.6725 74.3099 32.6399L74.2756 32.6268L73.2027 33.8841C73.0538 34.0587 72.7932 34.163 72.5058 34.163Z" fill="#ABE200"/>
</svg>
