<svg width="25" height="24" viewBox="0 0 25 24" fill="none" xmlns="http://www.w3.org/2000/svg">
<path d="M23.5 19.5H22V9C22.1989 9 22.3897 8.92098 22.5303 8.78033C22.671 8.63968 22.75 8.44891 22.75 8.25C22.75 8.05109 22.671 7.86032 22.5303 7.71967C22.3897 7.57902 22.1989 7.5 22 7.5H17.5V4.5C17.6989 4.5 17.8897 4.42098 18.0303 4.28033C18.171 4.13968 18.25 3.94891 18.25 3.75C18.25 3.55109 18.171 3.36032 18.0303 3.21967C17.8897 3.07902 17.6989 3 17.5 3H4C3.80109 3 3.61032 3.07902 3.46967 3.21967C3.32902 3.36032 3.25 3.55109 3.25 3.75C3.25 3.94891 3.32902 4.13968 3.46967 4.28033C3.61032 4.42098 3.80109 4.5 4 4.5V19.5H2.5C2.30109 19.5 2.11032 19.579 1.96967 19.7197C1.82902 19.8603 1.75 20.0511 1.75 20.25C1.75 20.4489 1.82902 20.6397 1.96967 20.7803C2.11032 20.921 2.30109 21 2.5 21H23.5C23.6989 21 23.8897 20.921 24.0303 20.7803C24.171 20.6397 24.25 20.4489 24.25 20.25C24.25 20.0511 24.171 19.8603 24.0303 19.7197C23.8897 19.579 23.6989 19.5 23.5 19.5ZM7.75 6.75H9.25C9.44891 6.75 9.63968 6.82902 9.78033 6.96967C9.92098 7.11032 10 7.30109 10 7.5C10 7.69891 9.92098 7.88968 9.78033 8.03033C9.63968 8.17098 9.44891 8.25 9.25 8.25H7.75C7.55109 8.25 7.36032 8.17098 7.21967 8.03033C7.07902 7.88968 7 7.69891 7 7.5C7 7.30109 7.07902 7.11032 7.21967 6.96967C7.36032 6.82902 7.55109 6.75 7.75 6.75ZM7 11.25C7 11.0511 7.07902 10.8603 7.21967 10.7197C7.36032 10.579 7.55109 10.5 7.75 10.5H9.25C9.44891 10.5 9.63968 10.579 9.78033 10.7197C9.92098 10.8603 10 11.0511 10 11.25C10 11.4489 9.92098 11.6397 9.78033 11.7803C9.63968 11.921 9.44891 12 9.25 12H7.75C7.55109 12 7.36032 11.921 7.21967 11.7803C7.07902 11.6397 7 11.4489 7 11.25ZM13 19.5H8.5V15H13V19.5ZM13.75 12H12.25C12.0511 12 11.8603 11.921 11.7197 11.7803C11.579 11.6397 11.5 11.4489 11.5 11.25C11.5 11.0511 11.579 10.8603 11.7197 10.7197C11.8603 10.579 12.0511 10.5 12.25 10.5H13.75C13.9489 10.5 14.1397 10.579 14.2803 10.7197C14.421 10.8603 14.5 11.0511 14.5 11.25C14.5 11.4489 14.421 11.6397 14.2803 11.7803C14.1397 11.921 13.9489 12 13.75 12ZM13.75 8.25H12.25C12.0511 8.25 11.8603 8.17098 11.7197 8.03033C11.579 7.88968 11.5 7.69891 11.5 7.5C11.5 7.30109 11.579 7.11032 11.7197 6.96967C11.8603 6.82902 12.0511 6.75 12.25 6.75H13.75C13.9489 6.75 14.1397 6.82902 14.2803 6.96967C14.421 7.11032 14.5 7.30109 14.5 7.5C14.5 7.69891 14.421 7.88968 14.2803 8.03033C14.1397 8.17098 13.9489 8.25 13.75 8.25ZM20.5 19.5H17.5V9H20.5V19.5Z" fill="#2A6C7E"/>
</svg>
