<svg width="25" height="24" viewBox="0 0 25 24" fill="none" xmlns="http://www.w3.org/2000/svg">
<path d="M19.75 3H4.75C4.35218 3 3.97064 3.15804 3.68934 3.43934C3.40804 3.72064 3.25 4.10218 3.25 4.5V19.5C3.25 19.8978 3.40804 20.2794 3.68934 20.5607C3.97064 20.842 4.35218 21 4.75 21H14.9397C15.1367 21.0003 15.3318 20.9616 15.5138 20.8862C15.6958 20.8107 15.861 20.7 16 20.5603L20.8103 15.75C20.95 15.611 21.0607 15.4458 21.1362 15.2638C21.2116 15.0818 21.2503 14.8867 21.25 14.6897V4.5C21.25 4.10218 21.092 3.72064 20.8107 3.43934C20.5294 3.15804 20.1478 3 19.75 3ZM9.25 8.25H15.25C15.4489 8.25 15.6397 8.32902 15.7803 8.46967C15.921 8.61032 16 8.80109 16 9C16 9.19891 15.921 9.38968 15.7803 9.53033C15.6397 9.67098 15.4489 9.75 15.25 9.75H9.25C9.05109 9.75 8.86032 9.67098 8.71967 9.53033C8.57902 9.38968 8.5 9.19891 8.5 9C8.5 8.80109 8.57902 8.61032 8.71967 8.46967C8.86032 8.32902 9.05109 8.25 9.25 8.25ZM12.25 15.75H9.25C9.05109 15.75 8.86032 15.671 8.71967 15.5303C8.57902 15.3897 8.5 15.1989 8.5 15C8.5 14.8011 8.57902 14.6103 8.71967 14.4697C8.86032 14.329 9.05109 14.25 9.25 14.25H12.25C12.4489 14.25 12.6397 14.329 12.7803 14.4697C12.921 14.6103 13 14.8011 13 15C13 15.1989 12.921 15.3897 12.7803 15.5303C12.6397 15.671 12.4489 15.75 12.25 15.75ZM9.25 12.75C9.05109 12.75 8.86032 12.671 8.71967 12.5303C8.57902 12.3897 8.5 12.1989 8.5 12C8.5 11.8011 8.57902 11.6103 8.71967 11.4697C8.86032 11.329 9.05109 11.25 9.25 11.25H15.25C15.4489 11.25 15.6397 11.329 15.7803 11.4697C15.921 11.6103 16 11.8011 16 12C16 12.1989 15.921 12.3897 15.7803 12.5303C15.6397 12.671 15.4489 12.75 15.25 12.75H9.25ZM15.25 19.1897V15H19.4406L15.25 19.1897Z" fill="#2A6C7E"/>
</svg>
