<svg width="25" height="24" viewBox="0 0 25 24" fill="none" xmlns="http://www.w3.org/2000/svg">
<path d="M9.25 9H15.25" stroke="#98A2B3" stroke-width="1.5" stroke-linecap="round" stroke-linejoin="round"/>
<path d="M9.25 12H15.25" stroke="#98A2B3" stroke-width="1.5" stroke-linecap="round" stroke-linejoin="round"/>
<path d="M9.25 15H12.25" stroke="#98A2B3" stroke-width="1.5" stroke-linecap="round" stroke-linejoin="round"/>
<path d="M14.9397 20.25H4.75C4.55109 20.25 4.36032 20.171 4.21967 20.0303C4.07902 19.8897 4 19.6989 4 19.5V4.5C4 4.30109 4.07902 4.11032 4.21967 3.96967C4.36032 3.82902 4.55109 3.75 4.75 3.75H19.75C19.9489 3.75 20.1397 3.82902 20.2803 3.96967C20.421 4.11032 20.5 4.30109 20.5 4.5V14.6897C20.4999 14.8883 20.421 15.0788 20.2806 15.2194L15.4694 20.0306C15.3288 20.171 15.1383 20.2499 14.9397 20.25Z" stroke="#98A2B3" stroke-width="1.5" stroke-linecap="round" stroke-linejoin="round"/>
<path d="M20.4325 15H15.25V20.1825" stroke="#98A2B3" stroke-width="1.5" stroke-linecap="round" stroke-linejoin="round"/>
</svg>
