<svg width="25" height="24" viewBox="0 0 25 24" fill="none" xmlns="http://www.w3.org/2000/svg">
<path d="M20.25 3H5.25C4.85218 3 4.47064 3.15804 4.18934 3.43934C3.90804 3.72064 3.75 4.10218 3.75 4.5V19.5C3.75 19.8978 3.90804 20.2794 4.18934 20.5607C4.47064 20.842 4.85218 21 5.25 21H20.25C20.6478 21 21.0294 20.842 21.3107 20.5607C21.592 20.2794 21.75 19.8978 21.75 19.5V4.5C21.75 4.10218 21.592 3.72064 21.3107 3.43934C21.0294 3.15804 20.6478 3 20.25 3ZM17.0306 10.2806L11.7806 15.5306C11.711 15.6004 11.6283 15.6557 11.5372 15.6934C11.4462 15.7312 11.3486 15.7506 11.25 15.7506C11.1514 15.7506 11.0538 15.7312 10.9628 15.6934C10.8717 15.6557 10.789 15.6004 10.7194 15.5306L8.46937 13.2806C8.32864 13.1399 8.24958 12.949 8.24958 12.75C8.24958 12.551 8.32864 12.3601 8.46937 12.2194C8.61011 12.0786 8.80098 11.9996 9 11.9996C9.19902 11.9996 9.38989 12.0786 9.53063 12.2194L11.25 13.9397L15.9694 9.21937C16.0391 9.14969 16.1218 9.09442 16.2128 9.0567C16.3039 9.01899 16.4015 8.99958 16.5 8.99958C16.5985 8.99958 16.6961 9.01899 16.7872 9.0567C16.8782 9.09442 16.9609 9.14969 17.0306 9.21937C17.1003 9.28906 17.1556 9.37178 17.1933 9.46283C17.231 9.55387 17.2504 9.65145 17.2504 9.75C17.2504 9.84855 17.231 9.94613 17.1933 10.0372C17.1556 10.1282 17.1003 10.2109 17.0306 10.2806Z" fill="#2A6C7E"/>
</svg>
