<svg width="28" height="28" viewBox="0 0 28 28" fill="none" xmlns="http://www.w3.org/2000/svg">
<path d="M10.5 21C10.5 21.9283 10.8687 22.8185 11.5251 23.4749C12.1815 24.1313 13.0717 24.5 14 24.5C14.9283 24.5 15.8185 24.1313 16.4749 23.4749C17.1313 22.8185 17.5 21.9283 17.5 21" stroke="#667085" stroke-width="1.6" stroke-linecap="round" stroke-linejoin="round"/>
<path d="M6.12499 11.375C6.12499 9.28642 6.95467 7.28338 8.43152 5.80653C9.90837 4.32969 11.9114 3.5 14 3.5C16.0886 3.5 18.0916 4.32969 19.5685 5.80653C21.0453 7.28338 21.875 9.28642 21.875 11.375C21.875 15.2928 22.7828 18.4406 23.5047 19.6875C23.5813 19.8203 23.6218 19.9709 23.6219 20.1242C23.622 20.2776 23.5819 20.4282 23.5054 20.5612C23.429 20.6941 23.319 20.8046 23.1864 20.8816C23.0538 20.9586 22.9033 20.9995 22.75 21H5.24999C5.09684 20.9991 4.94662 20.958 4.81433 20.8808C4.68205 20.8036 4.57233 20.6931 4.49616 20.5602C4.41999 20.4274 4.38002 20.2768 4.38025 20.1237C4.38048 19.9705 4.42091 19.8201 4.49749 19.6875C5.21827 18.4406 6.12499 15.2917 6.12499 11.375Z" stroke="#667085" stroke-width="1.6" stroke-linecap="round" stroke-linejoin="round"/>
</svg>
