<svg width="31" height="32" viewBox="0 0 31 32" fill="none" xmlns="http://www.w3.org/2000/svg">
<path fill-rule="evenodd" clip-rule="evenodd" d="M0.679016 5.95651L5.96493 9.00754L10.9788 6.1116C13.5595 4.62168 16.5164 4.62168 19.0971 6.1116L24.111 9.00754L29.3969 5.95651L22.7685 2.13C17.8513 -0.710001 12.2246 -0.710001 7.30739 2.13L0.679016 5.95651Z" fill="#2A6C7E"/>
<path fill-rule="evenodd" clip-rule="evenodd" d="M30.0732 7.13184L24.7924 10.1803V15.9722C24.7924 18.9546 23.3152 21.5124 20.7319 23.0048L15.7181 25.8982V32.0003L22.3414 28.1763C27.2586 25.3363 30.0732 20.4623 30.0732 14.7874V7.13438V7.13184Z" fill="#2A6C7E"/>
<path fill-rule="evenodd" clip-rule="evenodd" d="M14.3551 31.8961V25.8982L9.33871 23.0023C6.75804 21.5124 5.28083 18.9521 5.28083 15.9722V10.1803L0 7.13184V14.6831C0 20.3606 2.81458 25.2346 7.73183 28.0746L14.3526 31.8961H14.3551Z" fill="#2A6C7E"/>
</svg>
