<svg width="25" height="24" viewBox="0 0 25 24" fill="none" xmlns="http://www.w3.org/2000/svg">
<path d="M23.0571 10.0509C23.0362 9.9453 22.9928 9.84543 22.9299 9.75807C22.8669 9.67072 22.7859 9.59793 22.6924 9.54467L19.8958 7.95092L19.8846 4.79904C19.8842 4.69049 19.8603 4.58331 19.8145 4.4849C19.7687 4.38649 19.7021 4.29919 19.6192 4.22904C18.6048 3.37095 17.4366 2.71336 16.1767 2.29123C16.0775 2.25765 15.9724 2.24522 15.8681 2.25475C15.7638 2.26428 15.6626 2.29555 15.5711 2.34654L12.7502 3.92342L9.92643 2.34373C9.83488 2.29245 9.7336 2.26094 9.62911 2.25125C9.52463 2.24156 9.41928 2.2539 9.31987 2.28748C8.06077 2.71232 6.89384 3.37246 5.88112 4.23279C5.7984 4.30284 5.73185 4.38999 5.68604 4.48823C5.64024 4.58647 5.61628 4.69347 5.6158 4.80186L5.60174 7.95654L2.80518 9.55029C2.71162 9.60356 2.63062 9.67634 2.56769 9.7637C2.50476 9.85105 2.46138 9.95093 2.44049 10.0565C2.18455 11.3427 2.18455 12.6667 2.44049 13.9528C2.46138 14.0584 2.50476 14.1583 2.56769 14.2456C2.63062 14.333 2.71162 14.4058 2.80518 14.459L5.60174 16.0528L5.61299 19.2056C5.61333 19.3142 5.63723 19.4213 5.68304 19.5197C5.72884 19.6182 5.79547 19.7055 5.8783 19.7756C6.89275 20.6337 8.06095 21.2913 9.3208 21.7134C9.42002 21.747 9.52517 21.7594 9.62947 21.7499C9.73378 21.7404 9.83494 21.7091 9.92643 21.6581L12.7502 20.0765L15.5739 21.6562C15.6857 21.7185 15.8116 21.7508 15.9396 21.75C16.0215 21.75 16.1028 21.7367 16.1805 21.7106C17.4393 21.286 18.6061 20.6265 19.6192 19.7672C19.702 19.6971 19.7685 19.61 19.8143 19.5117C19.8601 19.4135 19.8841 19.3065 19.8846 19.1981L19.8986 16.0434L22.6952 14.4497C22.7887 14.3964 22.8697 14.3236 22.9327 14.2363C22.9956 14.1489 23.039 14.049 23.0599 13.9434C23.3144 12.6583 23.3134 11.3357 23.0571 10.0509ZM12.7502 15.75C12.0085 15.75 11.2835 15.53 10.6668 15.118C10.0501 14.7059 9.56946 14.1203 9.28563 13.435C9.0018 12.7498 8.92754 11.9958 9.07223 11.2684C9.21693 10.541 9.57408 9.87278 10.0985 9.34833C10.623 8.82388 11.2912 8.46673 12.0186 8.32204C12.746 8.17734 13.5 8.2516 14.1852 8.53543C14.8705 8.81926 15.4561 9.29991 15.8682 9.91659C16.2802 10.5333 16.5002 11.2583 16.5002 12C16.5002 12.9945 16.1051 13.9484 15.4018 14.6516C14.6986 15.3549 13.7447 15.75 12.7502 15.75Z" fill="#2A6C7E"/>
</svg>
