<svg width="25" height="24" viewBox="0 0 25 24" fill="none" xmlns="http://www.w3.org/2000/svg">
<path d="M12.75 15.75C14.8211 15.75 16.5 14.0711 16.5 12C16.5 9.92893 14.8211 8.25 12.75 8.25C10.6789 8.25 9 9.92893 9 12C9 14.0711 10.6789 15.75 12.75 15.75Z" stroke="#98A2B3" stroke-width="1.5" stroke-linecap="round" stroke-linejoin="round"/>
<path d="M12.9422 19.3228C12.8166 19.3228 12.69 19.3228 12.5672 19.3228L9.56253 21C8.39283 20.6065 7.3079 19.9959 6.36471 19.2L6.35346 15.825C6.2869 15.72 6.22409 15.6141 6.16596 15.5053L3.17815 13.8038C2.94281 12.6134 2.94281 11.3885 3.17815 10.1981L6.16315 8.50125C6.22409 8.39344 6.2869 8.28656 6.35065 8.18156L6.36565 4.80656C7.30799 4.00842 8.39264 3.39548 9.56253 3L12.5625 4.67719C12.6882 4.67719 12.8147 4.67719 12.9375 4.67719L15.9375 3C17.1072 3.39346 18.1921 4.00414 19.1353 4.8L19.1466 8.175C19.2132 8.28 19.276 8.38594 19.3341 8.49469L22.32 10.1953C22.5554 11.3857 22.5554 12.6106 22.32 13.8009L19.335 15.4978C19.2741 15.6056 19.2113 15.7125 19.1475 15.8175L19.1325 19.1925C18.1908 19.9908 17.1068 20.604 15.9375 21L12.9422 19.3228Z" stroke="#98A2B3" stroke-width="1.5" stroke-linecap="round" stroke-linejoin="round"/>
</svg>
