<svg width="120" height="120" viewBox="0 0 120 120" fill="none" xmlns="http://www.w3.org/2000/svg">
<path fill-rule="evenodd" clip-rule="evenodd" d="M60.0228 7.53076C89.0128 7.53076 112.523 31.0411 112.523 60.0311C112.523 89.0211 89.0128 112.531 60.0228 112.531C31.0328 112.531 7.52246 89.0211 7.52246 60.0311C7.52246 31.0411 31.0328 7.53076 60.0228 7.53076ZM49.1204 77.0836L36.2671 64.2196C34.0773 62.0285 34.0768 58.4555 36.2671 56.2649C38.4577 54.0747 42.0466 54.0884 44.2214 56.2649L53.2829 65.3335L75.825 42.7915C78.0157 40.6008 81.5891 40.6008 83.7793 42.7915C85.97 44.9817 85.9668 48.5582 83.7793 50.7458L57.2537 77.2714C55.0661 79.4589 51.4896 79.4621 49.2993 77.2714C49.2378 77.2099 49.1784 77.1473 49.1204 77.0836Z" fill="#00BA00"/>
</svg>
