<svg width="28" height="28" viewBox="0 0 28 28" fill="none" xmlns="http://www.w3.org/2000/svg">
<path d="M14 17C15.0355 17 15.875 16.1605 15.875 15.125C15.875 14.0895 15.0355 13.25 14 13.25C12.9645 13.25 12.125 14.0895 12.125 15.125C12.125 16.1605 12.9645 17 14 17Z" stroke="#667085" stroke-width="1.6" stroke-linecap="round" stroke-linejoin="round"/>
<path d="M14 17V19.25" stroke="#667085" stroke-width="1.6" stroke-linecap="round" stroke-linejoin="round"/>
<path d="M21.5 10.25H6.5C6.08579 10.25 5.75 10.5858 5.75 11V21.5C5.75 21.9142 6.08579 22.25 6.5 22.25H21.5C21.9142 22.25 22.25 21.9142 22.25 21.5V11C22.25 10.5858 21.9142 10.25 21.5 10.25Z" stroke="#667085" stroke-width="1.6" stroke-linecap="round" stroke-linejoin="round"/>
<path d="M10.25 10.25V7.25C10.25 6.25544 10.6451 5.30161 11.3483 4.59835C12.0516 3.89509 13.0054 3.5 14 3.5C14.9946 3.5 15.9484 3.89509 16.6517 4.59835C17.3549 5.30161 17.75 6.25544 17.75 7.25V10.25" stroke="#667085" stroke-width="1.6" stroke-linecap="round" stroke-linejoin="round"/>
</svg>
