<svg width="28" height="28" viewBox="0 0 28 28" fill="none" xmlns="http://www.w3.org/2000/svg">
<path d="M23 20.75V21.5C23 22.2956 22.6839 23.0587 22.1213 23.6213C21.5587 24.1839 20.7956 24.5 20 24.5H14.75" stroke="#667085" stroke-width="1.6" stroke-linecap="round" stroke-linejoin="round"/>
<path d="M23 14H20C19.6022 14 19.2206 14.158 18.9393 14.4393C18.658 14.7206 18.5 15.1022 18.5 15.5V19.25C18.5 19.6478 18.658 20.0294 18.9393 20.3107C19.2206 20.592 19.6022 20.75 20 20.75H23V14ZM23 14C23 12.8181 22.7672 11.6478 22.3149 10.5558C21.8626 9.46392 21.1997 8.47177 20.364 7.63604C19.5282 6.80031 18.5361 6.13738 17.4442 5.68508C16.3522 5.23279 15.1819 5 14 5C12.8181 5 11.6478 5.23279 10.5558 5.68508C9.46392 6.13738 8.47177 6.80031 7.63604 7.63604C6.80031 8.47177 6.13738 9.46392 5.68508 10.5558C5.23279 11.6478 5 12.8181 5 14M5 14V19.25C5 19.6478 5.15804 20.0294 5.43934 20.3107C5.72064 20.592 6.10218 20.75 6.5 20.75H8C8.39782 20.75 8.77936 20.592 9.06066 20.3107C9.34196 20.0294 9.5 19.6478 9.5 19.25V15.5C9.5 15.1022 9.34196 14.7206 9.06066 14.4393C8.77936 14.158 8.39782 14 8 14H5Z" stroke="#667085" stroke-width="1.6" stroke-linecap="round" stroke-linejoin="round"/>
</svg>
