<svg width="28" height="28" viewBox="0 0 28 28" fill="none" xmlns="http://www.w3.org/2000/svg">
<path d="M14 8.7998C14.3866 8.7998 14.7002 9.1134 14.7002 9.5C14.7002 9.8866 14.3866 10.2002 14 10.2002C13.6134 10.2002 13.2998 9.8866 13.2998 9.5C13.2998 9.1134 13.6134 8.7998 14 8.7998Z" stroke="#667085" stroke-width="1.6"/>
<path d="M19.25 9.5C19.25 14.75 14 17.75 14 17.75C14 17.75 8.75 14.75 8.75 9.5C8.75 8.10761 9.30312 6.77226 10.2877 5.78769C11.2723 4.80312 12.6076 4.25 14 4.25C15.3924 4.25 16.7277 4.80312 17.7123 5.78769C18.6969 6.77226 19.25 8.10761 19.25 9.5Z" stroke="#667085" stroke-width="1.6" stroke-linecap="round" stroke-linejoin="round"/>
<path d="M20.75 16.5444C22.5987 17.2269 23.75 18.1869 23.75 19.2501C23.75 21.321 19.385 23.0001 14 23.0001C8.615 23.0001 4.25 21.321 4.25 19.2501C4.25 18.1869 5.40125 17.2269 7.25 16.5444" stroke="#667085" stroke-width="1.6" stroke-linecap="round" stroke-linejoin="round"/>
</svg>
