<svg width="28" height="28" viewBox="0 0 28 28" fill="none" xmlns="http://www.w3.org/2000/svg">
<path d="M14 23C18.9706 23 23 18.9706 23 14C23 9.02944 18.9706 5 14 5C9.02944 5 5 9.02944 5 14C5 18.9706 9.02944 23 14 23Z" stroke="#667085" stroke-width="1.6" stroke-linecap="round" stroke-linejoin="round"/>
<path d="M14 17C16.0711 17 17.75 15.3211 17.75 13.25C17.75 11.1789 16.0711 9.5 14 9.5C11.9289 9.5 10.25 11.1789 10.25 13.25C10.25 15.3211 11.9289 17 14 17Z" stroke="#667085" stroke-width="1.6" stroke-linecap="round" stroke-linejoin="round"/>
<path d="M7.98145 20.6909C8.54574 19.5794 9.40678 18.6459 10.4691 17.9938C11.5315 17.3418 12.7537 16.9966 14.0002 16.9966C15.2467 16.9966 16.4689 17.3418 17.5312 17.9938C18.5936 18.6459 19.4547 19.5794 20.0189 20.6909" stroke="#667085" stroke-width="1.6" stroke-linecap="round" stroke-linejoin="round"/>
</svg>
