<svg width="28" height="28" viewBox="0 0 28 28" fill="none" xmlns="http://www.w3.org/2000/svg">
<path d="M9.875 17C12.5674 17 14.75 14.8174 14.75 12.125C14.75 9.43261 12.5674 7.25 9.875 7.25C7.18261 7.25 5 9.43261 5 12.125C5 14.8174 7.18261 17 9.875 17Z" stroke="#667085" stroke-width="1.6" stroke-linecap="round" stroke-linejoin="round"/>
<path d="M2.95898 20.75C3.70813 19.5982 4.73311 18.6517 5.94086 17.9965C7.14861 17.3412 8.50089 16.998 9.87492 16.998C11.249 16.998 12.6012 17.3412 13.809 17.9965C15.0167 18.6517 16.0417 19.5982 16.7909 20.75" stroke="#667085" stroke-width="1.6" stroke-linecap="round" stroke-linejoin="round"/>
<path d="M18.125 17C19.499 16.9992 20.8513 17.3418 22.0592 17.9967C23.267 18.6517 24.292 19.5981 25.0409 20.75" stroke="#667085" stroke-width="1.6" stroke-linecap="round" stroke-linejoin="round"/>
<path d="M16.3149 7.59687C16.9818 7.3309 17.6992 7.2155 18.4158 7.25893C19.1324 7.30235 19.8306 7.50352 20.4605 7.84806C21.0904 8.19261 21.6363 8.67202 22.0595 9.25204C22.4826 9.83206 22.7723 10.4984 22.908 11.2034C23.0438 11.9084 23.0221 12.6346 22.8446 13.3303C22.6671 14.026 22.3381 14.6738 21.8812 15.2276C21.4243 15.7814 20.8507 16.2274 20.2014 16.5338C19.5521 16.8402 18.8432 16.9994 18.1253 17" stroke="#667085" stroke-width="1.6" stroke-linecap="round" stroke-linejoin="round"/>
</svg>
