<svg width="28" height="28" viewBox="0 0 28 28" fill="none" xmlns="http://www.w3.org/2000/svg">
<path d="M11 20C11 20.7956 11.3161 21.5587 11.8787 22.1213C12.4413 22.6839 13.2044 23 14 23C14.7956 23 15.5587 22.6839 16.1213 22.1213C16.6839 21.5587 17 20.7956 17 20" stroke="#667085" stroke-width="1.6" stroke-linecap="round" stroke-linejoin="round"/>
<path d="M7.24988 11.75C7.24988 9.95979 7.96104 8.2429 9.22691 6.97703C10.4928 5.71116 12.2097 5 13.9999 5C15.7901 5 17.507 5.71116 18.7729 6.97703C20.0387 8.2429 20.7499 9.95979 20.7499 11.75C20.7499 15.1081 21.528 17.8063 22.1468 18.875C22.2125 18.9888 22.2471 19.1179 22.2472 19.2493C22.2474 19.3808 22.2129 19.5099 22.1474 19.6239C22.0819 19.7378 21.9876 19.8325 21.874 19.8985C21.7603 19.9645 21.6313 19.9995 21.4999 20H6.49988C6.36861 19.9992 6.23985 19.964 6.12646 19.8978C6.01308 19.8317 5.91904 19.7369 5.85375 19.6231C5.78845 19.5092 5.7542 19.3801 5.7544 19.2489C5.75459 19.1176 5.78925 18.9887 5.85488 18.875C6.4727 17.8063 7.24988 15.1072 7.24988 11.75Z" stroke="#667085" stroke-width="1.6" stroke-linecap="round" stroke-linejoin="round"/>
</svg>
