<svg width="28" height="28" viewBox="0 0 28 28" fill="none" xmlns="http://www.w3.org/2000/svg">
<path d="M18.5 11.75H20.75C20.9489 11.75 21.1397 11.829 21.2803 11.9697C21.421 12.1103 21.5 12.3011 21.5 12.5V21.5C21.5 21.6989 21.421 21.8897 21.2803 22.0303C21.1397 22.171 20.9489 22.25 20.75 22.25H7.25C7.05109 22.25 6.86032 22.171 6.71967 22.0303C6.57902 21.8897 6.5 21.6989 6.5 21.5V12.5C6.5 12.3011 6.57902 12.1103 6.71967 11.9697C6.86032 11.829 7.05109 11.75 7.25 11.75H9.5" stroke="#667085" stroke-width="1.6" stroke-linecap="round" stroke-linejoin="round"/>
<path d="M10.25 8L14 4.25L17.75 8" stroke="#667085" stroke-width="1.6" stroke-linecap="round" stroke-linejoin="round"/>
<path d="M14 4.25V14.75" stroke="#667085" stroke-width="1.6" stroke-linecap="round" stroke-linejoin="round"/>
</svg>
